<?xml version="1.0" encoding="UTF-8" standalone="no"?>
<!-- Generator: Adobe Illustrator 15.0.0, SVG Export Plug-In  -->

<svg
   xmlns:dc="http://purl.org/dc/elements/1.1/"
   xmlns:cc="http://creativecommons.org/ns#"
   xmlns:rdf="http://www.w3.org/1999/02/22-rdf-syntax-ns#"
   xmlns:svg="http://www.w3.org/2000/svg"
   xmlns="http://www.w3.org/2000/svg"
   xmlns:sodipodi="http://sodipodi.sourceforge.net/DTD/sodipodi-0.dtd"
   xmlns:inkscape="http://www.inkscape.org/namespaces/inkscape"
   version="1.1"
   x="0px"
   y="0px"
   width="800px"
   height="476px"
   viewBox="-40.508 -41.067 800 476"
   enable-background="new -40.508 -41.067 800 476"
   xml:space="preserve"
   id="svg3267"
   inkscape:version="0.48.2 r9819"
   sodipodi:docname="bat-outline.svg"><metadata
   id="metadata3509"><rdf:RDF><cc:Work
       rdf:about=""><dc:format>image/svg+xml</dc:format><dc:type
         rdf:resource="http://purl.org/dc/dcmitype/StillImage" /><dc:title></dc:title></cc:Work></rdf:RDF></metadata><sodipodi:namedview
   pagecolor="#ffffff"
   bordercolor="#666666"
   borderopacity="1"
   objecttolerance="10"
   gridtolerance="10"
   guidetolerance="10"
   inkscape:pageopacity="0"
   inkscape:pageshadow="2"
   inkscape:window-width="1680"
   inkscape:window-height="1002"
   id="namedview3507"
   showgrid="false"
   inkscape:zoom="4.5617578"
   inkscape:cx="76.146453"
   inkscape:cy="440.53306"
   inkscape:window-x="0"
   inkscape:window-y="382"
   inkscape:window-maximized="0"
   inkscape:current-layer="svg3267"
   inkscape:document-units="in"
   inkscape:snap-bbox="false"
   inkscape:object-nodes="true" />
<defs
   id="defs3269">
</defs>
<path
   style="fill:none;stroke:#000000;stroke-width:0.25225383;stroke-opacity:1"
   d="M 67.46875 -38.6875 C 69.230602 -23.560192 77.668304 -15.088652 87.65625 -8.1875 C 92.78357 -9.133155 95.343452 -14.830814 92.6875 -20.03125 C 96.268517 -16.749797 102.19097 -16.901064 105.8125 -20.03125 C 103.1664 -15.423113 105.56494 -9.935799 109.34375 -8.1875 C 121.17163 -13.753266 128.31181 -24.014041 131.03125 -38.6875 L 67.46875 -38.6875 z "
   transform="translate(-40.508,-41.067)"
   id="path5807" /><path
   style="fill:none;stroke:#000000;stroke-width:0.25225383;stroke-opacity:1"
   d="M 51.71875 3.1875 C 50.797741 3.1859085 49.89352 3.2015045 49 3.25 C 23.981433 4.607871 9.249581 25.818609 0.59375 42.53125 C 7.425535 35.890558 27.479376 36.865582 30.09375 46.59375 C 36.561512 37.277621 47.646198 48.53774 50.53125 54.90625 C 53.6809 47.614492 66.723182 51.553635 68.9375 56.90625 C 70.59758 51.336006 72.860182 45.309032 80.8125 46.59375 C 86.19381 47.463046 88.139248 56.566561 93.90625 54.90625 C 95.73001 54.38131 97.778449 50.121378 100.21875 48.34375 C 106.17928 44.001713 115.40847 47.98546 113.84375 56.65625 C 117.31956 54.029954 125.68566 48.74453 132.25 52.125 C 133.36397 52.698374 134.72908 54.80174 135.53125 54.40625 C 135.94471 45.14099 149.24546 39.312769 155.71875 46.59375 C 156.69825 35.075928 177.45378 37.140055 183.71875 42.53125 C 172.25404 23.033955 157.00295 -1.123189 123.9375 3.9375 C 123.9356 3.94776 123.9394 3.95849 123.9375 3.96875 L 60.375 3.96875 C 60.3738 3.9581 60.3762 3.94816 60.375 3.9375 C 57.370849 3.42132 54.481777 3.1922744 51.71875 3.1875 z "
   transform="translate(-40.508,-41.067)"
   id="path3271" />





















































































































<path
   inkscape:connector-curvature="0"
   style="fill:none;stroke:#000000;stroke-width:0.25225383;stroke-opacity:1"
   id="path5804"
   d="m 27.315111,32.381271 c 1.753695,15.147362 10.185291,23.61665 20.180272,30.522663 5.127318,-0.945656 7.701078,-6.655406 5.045126,-11.855842 3.581017,3.281453 9.495345,3.130186 13.116877,0 -2.646101,4.608137 -0.24717,10.107542 3.531637,11.855842 11.836151,-5.569657 18.978551,-15.832762 21.69371,-30.522663 33.065447,-5.060689 48.319997,19.097557 59.784707,38.594852 -6.26497,-5.391196 -27.02122,-7.481859 -28.00072,4.035963 -6.47329,-7.280982 -19.76677,-1.445321 -20.18023,7.819939 -0.80217,0.39549 -2.16535,-1.696985 -3.279316,-2.270359 C 92.64283,77.181196 84.268486,82.47604 80.792677,85.102336 82.357398,76.431546 73.13149,72.435905 67.170964,76.777942 64.730663,78.55557 62.688378,82.8116 60.864618,83.33654 55.097616,84.996851 53.128721,75.881382 47.747411,75.012086 39.795093,73.727368 37.551597,79.784295 35.891517,85.354539 33.677199,80.001924 20.626633,76.044782 17.476983,83.33654 14.591932,76.96803 3.5122083,65.695956 -2.955554,75.012086 -5.569928,65.283918 -25.637462,64.33543 -32.469247,70.976123 -22.576868,51.875962 -4.729158,26.875349 27.315111,32.381271 z"
   clip-rule="evenodd" /></svg>