<?xml version="1.0" encoding="UTF-8" standalone="no"?>
<!-- Generator: Adobe Illustrator 15.0.0, SVG Export Plug-In  -->

<svg
   xmlns:dc="http://purl.org/dc/elements/1.1/"
   xmlns:cc="http://creativecommons.org/ns#"
   xmlns:rdf="http://www.w3.org/1999/02/22-rdf-syntax-ns#"
   xmlns:svg="http://www.w3.org/2000/svg"
   xmlns="http://www.w3.org/2000/svg"
   xmlns:sodipodi="http://sodipodi.sourceforge.net/DTD/sodipodi-0.dtd"
   xmlns:inkscape="http://www.inkscape.org/namespaces/inkscape"
   version="1.1"
   x="0px"
   y="0px"
   width="173.5284"
   height="43.914692"
   viewBox="-40.508 -41.067 173.5284 43.914692"
   enable-background="new -40.508 -41.067 800 476"
   xml:space="preserve"
   id="svg3499"
   inkscape:version="0.48.2 r9819"
   sodipodi:docname="bat-gears.svg"><metadata
   id="metadata3741"><rdf:RDF><cc:Work
       rdf:about=""><dc:format>image/svg+xml</dc:format><dc:type
         rdf:resource="http://purl.org/dc/dcmitype/StillImage" /><dc:title /></cc:Work></rdf:RDF></metadata><sodipodi:namedview
   pagecolor="#ffffff"
   bordercolor="#666666"
   borderopacity="1"
   objecttolerance="10"
   gridtolerance="10"
   guidetolerance="10"
   inkscape:pageopacity="0"
   inkscape:pageshadow="2"
   inkscape:window-width="1680"
   inkscape:window-height="1002"
   id="namedview3739"
   showgrid="false"
   inkscape:zoom="13.269024"
   inkscape:cx="52.329395"
   inkscape:cy="21.677744"
   inkscape:window-x="0"
   inkscape:window-y="382"
   inkscape:window-maximized="0"
   inkscape:current-layer="svg3499"
   inkscape:document-units="in"
   fit-margin-top="0"
   fit-margin-left="0"
   fit-margin-right="0"
   fit-margin-bottom="0" />
<defs
   id="defs3501">
</defs>

<path
   d="m 42.72368,-19.272223 c 0.444023,-0.0215 0.786163,0.0687 1.097638,0.19286 0.307673,0.1285 0.575557,0.30058 0.807706,0.51195 0.233669,0.2101 0.43059,0.45999 0.587721,0.75372 0.153077,0.29804 0.275487,0.63055 0.294748,1.0761 -0.445543,0.0231 -0.787937,-0.0669 -1.099158,-0.1911 -0.30742,-0.12849 -0.57505,-0.30108 -0.806185,-0.51346 -0.232656,-0.21111 -0.42907,-0.46151 -0.586201,-0.75524 -0.153077,-0.29881 -0.275487,-0.63081 -0.296269,-1.07483 z"
   id="path3505"
   inkscape:connector-curvature="0"
   style="fill:#000000;fill-opacity:1" />
<path
   d="m 47.12513,-16.737853 c 0.02078,-0.44402 0.142939,-0.77602 0.296522,-1.07432 0.156878,-0.29399 0.353799,-0.54413 0.586201,-0.75524 0.231135,-0.21238 0.499018,-0.38497 0.806438,-0.51347 0.311475,-0.12443 0.653869,-0.2144 1.098907,-0.19109 -0.0193,0.44554 -0.14117,0.77805 -0.2945,1.0761 -0.157381,0.29373 -0.354302,0.54387 -0.587971,0.75372 -0.232149,0.21111 -0.500033,0.3832 -0.807452,0.51194 -0.311982,0.12343 -0.654123,0.21391 -1.098145,0.19236 z"
   id="path3507"
   inkscape:connector-curvature="0"
   style="fill:#000000;fill-opacity:1" />
<circle
   cx="553.09399"
   cy="82.552002"
   r="2.7780001"
   id="circle3509"
   sodipodi:cx="553.09399"
   sodipodi:cy="82.552002"
   sodipodi:rx="2.7780001"
   sodipodi:ry="2.7780001"
   transform="matrix(0.25343753,0,0,0.25343753,-45.732355,-43.107523)"
   style="fill:#000000;fill-opacity:1" />
<circle
   cx="586.901"
   cy="73.252998"
   r="2.7780001"
   id="circle3511"
   sodipodi:cx="586.901"
   sodipodi:cy="73.252998"
   sodipodi:rx="2.7780001"
   sodipodi:ry="2.7780001"
   transform="matrix(0.25343753,0,0,0.25343753,-45.732355,-43.107523)"
   style="fill:#000000;fill-opacity:1" />
<circle
   cx="605.401"
   cy="32.465"
   r="2.7780001"
   id="circle3513"
   sodipodi:cx="605.401"
   sodipodi:cy="32.465"
   sodipodi:rx="2.7780001"
   sodipodi:ry="2.7780001"
   transform="matrix(0.25343753,0,0,0.25343753,-45.732355,-43.107523)"
   style="fill:#000000;fill-opacity:1" />
<rect
   x="-29.039797"
   y="-109.52247"
   transform="matrix(0.05729754,0.99835715,-0.99835715,0.05729754,0,0)"
   width="0.76034522"
   height="14.950922"
   id="rect3515"
   style="fill:#000000;fill-opacity:1" />
<rect
   x="49.645313"
   y="-102.11729"
   transform="matrix(0.6940893,0.71988891,-0.71988891,0.6940893,0,0)"
   width="36.089046"
   height="0.7603243"
   id="rect3517"
   style="fill:#000000;fill-opacity:1" />
<rect
   x="67.811417"
   y="-69.708084"
   transform="matrix(0.88828518,0.45929233,-0.45929233,0.88828518,0,0)"
   width="12.313975"
   height="0.76057869"
   id="rect3519"
   style="fill:#000000;fill-opacity:1" />
<rect
   x="0.066375814"
   y="-106.327"
   transform="matrix(0.23450367,0.97211523,-0.97211523,0.23450367,0,0)"
   width="19.992361"
   height="0.7603007"
   id="rect3521"
   style="fill:#000000;fill-opacity:1" />
<rect
   x="32.586498"
   y="-89.239616"
   transform="matrix(0.60108742,0.79918328,-0.79918328,0.60108742,0,0)"
   width="6.4085555"
   height="0.76058191"
   id="rect3523"
   style="fill:#000000;fill-opacity:1" />
<rect
   x="86.522728"
   y="-43.184742"
   transform="matrix(0.97370753,0.22780176,-0.22780176,0.97370753,0,0)"
   width="0.76056015"
   height="25.53414"
   id="rect3525"
   style="fill:#000000;fill-opacity:1" />
<rect
   x="78.032951"
   y="-71.350777"
   transform="matrix(0.91889657,0.39449853,-0.39449853,0.91889657,0,0)"
   width="15.67669"
   height="0.76031542"
   id="rect3527"
   style="fill:#000000;fill-opacity:1" />
<rect
   x="37.075539"
   y="-94.260063"
   transform="matrix(0.61000068,0.79240089,-0.79240089,0.61000068,0,0)"
   width="12.556548"
   height="0.76031172"
   id="rect3529"
   style="fill:#000000;fill-opacity:1" />
<rect
   x="-19.131289"
   y="-93.963699"
   transform="matrix(0.06770039,0.9977057,-0.9977057,0.06770039,0,0)"
   width="10.385557"
   height="0.76005483"
   id="rect3531"
   style="fill:#000000;fill-opacity:1" />
<path
   d="m 81.993568,-39.299363 c -0.0494,-0.17259 -0.24888,-0.87462 -0.24888,-0.87462 -0.0565,-0.19489 0.0575,-0.39865 0.25294,-0.45441 l 1.24488,-0.35481 c 0.1954,-0.0555 0.39942,0.0578 0.45492,0.25344 0,0 0.19996,0.70176 0.24837,0.87436 0.0499,0.17233 0.45239,0.16296 0.45239,0.16296 l 0.1959,0.68833 c 0.0555,0.19566 -0.0575,0.39967 -0.25343,0.45492 l -0.99703,0.28436 -0.99753,0.28436 c -0.1954,0.0557 -0.39942,-0.058 -0.45441,-0.25344 l -0.19642,-0.68859 c 2.6e-4,-2.5e-4 0.34721,-0.20427 0.2983,-0.37686 z"
   id="path3533"
   inkscape:connector-curvature="0"
   style="fill:#000000;fill-opacity:1" />
<path
   d="m 86.055918,-39.611853 c 0.0872,-0.15688 0.442,-0.79402 0.442,-0.79402 0.0991,-0.17766 0.32262,-0.24178 0.50053,-0.14269 l 1.1316,0.62954 c 0.17766,0.0986 0.24102,0.32314 0.14269,0.50054 0,0 -0.35481,0.6374 -0.442,0.79453 -0.0877,0.15662 0.20453,0.43464 0.20453,0.43464 l -0.34848,0.62498 c -0.0991,0.17791 -0.32313,0.24203 -0.50104,0.14319 l -0.90579,-0.50484 -0.90629,-0.50409 c -0.17766,-0.0986 -0.24102,-0.32288 -0.14294,-0.49978 l 0.34847,-0.62574 c 2.6e-4,0 0.3903,0.10062 0.47672,-0.0563 z"
   id="path3535"
   inkscape:connector-curvature="0"
   style="fill:#000000;fill-opacity:1" />
<path
   d="m 89.307518,-36.760173 c 0.17285,-0.0494 0.87462,-0.24913 0.87462,-0.24913 0.19514,-0.055 0.3984,0.0578 0.45492,0.25344 l 0.3543,1.24539 c 0.0555,0.19489 -0.058,0.39866 -0.25343,0.45441 0,0 -0.70152,0.19971 -0.8736,0.24888 -0.17285,0.0497 -0.16372,0.45162 -0.16372,0.45162 l -0.68859,0.19616 c -0.19464,0.056 -0.39891,-0.058 -0.45442,-0.25318 l -0.2841,-0.99753 -0.2836,-0.99753 c -0.056,-0.1954 0.0575,-0.39916 0.25243,-0.45492 l 0.68859,-0.19616 c 5e-4,10e-4 0.20452,0.34797 0.3766,0.29855 z"
   id="path3537"
   inkscape:connector-curvature="0"
   style="fill:#000000;fill-opacity:1" />
<path
   d="m 89.619508,-32.697313 c 0.15687,0.0872 0.79503,0.44224 0.79503,0.44224 0.17766,0.0986 0.24102,0.32263 0.14218,0.50054 l -0.62903,1.13135 c -0.0991,0.17766 -0.32314,0.24152 -0.50105,0.14218 0,0 -0.63765,-0.35507 -0.79402,-0.44149 -0.15637,-0.0874 -0.43465,0.20351 -0.43465,0.20351 l -0.62573,-0.34822 c -0.17817,-0.0986 -0.24102,-0.32288 -0.14294,-0.49953 l 0.50485,-0.90705 0.50332,-0.90554 c 0.0996,-0.1774 0.32314,-0.24203 0.50156,-0.14293 l 0.62573,0.34822 c -2.5e-4,-5.1e-4 -0.10112,0.38903 0.0548,0.47672 z"
   id="path3539"
   inkscape:connector-curvature="0"
   style="fill:#000000;fill-opacity:1" />
<path
   d="m 86.768838,-29.445463 c 0.0489,0.17133 0.24888,0.87335 0.24888,0.87335 0.056,0.1959 -0.0575,0.39942 -0.25344,0.45568 l -1.24489,0.3543 c -0.19514,0.055 -0.39891,-0.0578 -0.45542,-0.25369 0,0 -0.19946,-0.70101 -0.24837,-0.87385 -0.0484,-0.17259 -0.45137,-0.16296 -0.45137,-0.16296 l -0.19591,-0.68884 c -0.0565,-0.19566 0.058,-0.39866 0.25293,-0.45518 l 0.99753,-0.28385 0.99702,-0.28461 c 0.1954,-0.055 0.39942,0.0583 0.45543,0.25369 l 0.1954,0.68834 c -2.5e-4,5.1e-4 -0.3467,0.20478 -0.29779,0.37762 z"
   id="path3541"
   inkscape:connector-curvature="0"
   style="fill:#000000;fill-opacity:1" />
<path
   d="m 82.706488,-29.133983 c -0.0877,0.15738 -0.44199,0.79478 -0.44199,0.79478 -0.0996,0.1769 -0.32314,0.24127 -0.50054,0.14268 l -1.13211,-0.62928 c -0.17766,-0.0993 -0.24153,-0.32339 -0.14268,-0.50206 0,0 0.35531,-0.63714 0.44199,-0.79377 0.0872,-0.15713 -0.20402,-0.43515 -0.20402,-0.43515 l 0.34848,-0.62523 c 0.0991,-0.17741 0.32263,-0.24178 0.50054,-0.14294 l 0.90528,0.50434 0.9073,0.50485 c 0.17716,0.0991 0.24102,0.32313 0.14218,0.50104 l -0.34847,0.62523 c 5e-4,5.1e-4 -0.38903,-0.10036 -0.47596,0.0555 z"
   id="path3543"
   inkscape:connector-curvature="0"
   style="fill:#000000;fill-opacity:1" />
<path
   d="m 79.454378,-31.984403 c -0.17234,0.0484 -0.87411,0.24863 -0.87411,0.24863 -0.19514,0.055 -0.39891,-0.058 -0.45542,-0.25319 l -0.35431,-1.24564 c -0.056,-0.1954 0.058,-0.39866 0.25344,-0.45442 0,0 0.70151,-0.1997 0.8741,-0.24913 0.17234,-0.0489 0.16347,-0.45086 0.16347,-0.45086 l 0.68859,-0.19591 c 0.1954,-0.0563 0.39891,0.057 0.45492,0.25293 l 0.28309,0.99753 0.28512,0.99677 c 0.0555,0.19566 -0.058,0.39942 -0.25395,0.45518 l -0.68757,0.19616 c -2.6e-4,-5.1e-4 -0.20529,-0.34797 -0.37737,-0.29805 z"
   id="path3545"
   inkscape:connector-curvature="0"
   style="fill:#000000;fill-opacity:1" />
<path
   d="m 79.142398,-36.048013 c -0.15688,-0.0869 -0.79453,-0.44174 -0.79453,-0.44174 -0.17766,-0.0991 -0.24152,-0.32314 -0.14294,-0.50054 l 0.62903,-1.1311 c 0.10011,-0.17791 0.32415,-0.24177 0.50156,-0.14268 0,0 0.63765,0.35456 0.79503,0.44174 0.15587,0.0877 0.43363,-0.20376 0.43363,-0.20376 l 0.62625,0.34847 c 0.17664,0.0983 0.24152,0.32263 0.14218,0.50054 l -0.50384,0.9063 -0.50434,0.90553 c -0.0991,0.17791 -0.32263,0.24178 -0.50105,0.14294 l -0.62523,-0.34797 c -7.6e-4,-2.6e-4 0.10062,-0.39004 -0.0558,-0.47773 z"
   id="path3547"
   inkscape:connector-curvature="0"
   style="fill:#000000;fill-opacity:1" />
<path
   d="m 81.079928,-38.537783 c 2.3002,-1.82323 5.64304,-1.43623 7.46601,0.86397 1.82298,2.30019 1.43649,5.64278 -0.86371,7.46576 -2.3002,1.82297 -5.64253,1.43674 -7.46602,-0.86346 -1.82323,-2.3002 -1.43673,-5.64304 0.86372,-7.46627 z m 2.30755,4.95267 c 0.43515,0.54844 1.23196,0.6412 1.7809,0.20605 0.54895,-0.4349 0.64095,-1.23247 0.20605,-1.78091 -0.43465,-0.54869 -1.23196,-0.64094 -1.7804,-0.20604 -0.54895,0.4349 -0.6412,1.23221 -0.20655,1.7809 z m -1.05988,-2.63701 c 0.0872,0.10999 0.24761,0.12824 0.35735,0.0413 l 0.32262,-0.25572 c 0.11,-0.0874 0.12824,-0.2471 0.0411,-0.3571 l -0.67414,-0.85079 c -0.0872,-0.10999 -0.2471,-0.12824 -0.35684,-0.0411 l -0.32263,0.25572 c -0.10999,0.0872 -0.12875,0.24684 -0.0416,0.35684 l 0.67414,0.85079 z m 3.90319,-0.20351 c -0.10999,0.0872 -0.12874,0.24735 -0.0416,0.35684 l 0.25597,0.32313 c 0.0872,0.10948 0.2471,0.12773 0.35735,0.0405 l 0.85028,-0.6744 c 0.10999,-0.0869 0.12824,-0.24685 0.0416,-0.35659 l -0.25597,-0.32287 c -0.0872,-0.11 -0.2471,-0.12824 -0.35684,-0.0413 l -0.85079,0.67466 z m 0.20351,3.90243 c -0.0872,-0.10974 -0.2471,-0.12799 -0.35684,-0.0408 l -0.32262,0.25572 c -0.10999,0.0872 -0.12926,0.2471 -0.0421,0.3571 l 0.67465,0.85078 c 0.0872,0.11 0.2471,0.12774 0.35684,0.0408 l 0.32262,-0.25597 c 0.10999,-0.0872 0.12926,-0.2466 0.0416,-0.35659 l -0.67415,-0.85104 z m -3.90319,0.20351 c 0.10999,-0.0872 0.12824,-0.24685 0.0416,-0.35634 l -0.25598,-0.32313 c -0.0872,-0.10999 -0.2471,-0.12824 -0.35684,-0.0413 l -0.85079,0.6744 c -0.10999,0.0874 -0.12824,0.2471 -0.0416,0.35684 l 0.25648,0.32313 c 0.0867,0.10949 0.24659,0.12799 0.35684,0.0408 l 0.85028,-0.67439 z"
   id="path3549"
   inkscape:connector-curvature="0"
   style="fill:#000000;fill-opacity:1" />
<path
   d="m 42.47962,-7.2070722 c -0.100615,-0.13889 -0.50941,-0.70456 -0.50941,-0.70456 -0.1143,-0.15637 -0.07907,-0.37686 0.07857,-0.49091 l 1.002852,-0.72584 c 0.156878,-0.1138 0.377115,-0.0786 0.491162,0.0791 0,0 0.408795,0.56491 0.50941,0.7043 0.100868,0.13838 0.459482,-0.002 0.459482,-0.002 l 0.401445,0.55401 c 0.113794,0.1579 0.07882,0.37813 -0.07933,0.49167 l -0.802637,0.58139 -0.803143,0.58138 c -0.157131,0.1138 -0.377622,0.0786 -0.490909,-0.0791 l -0.402205,-0.55427 c -2.53e-4,2.6e-4 0.245074,-0.29652 0.144713,-0.43565 z"
   id="path3551"
   inkscape:connector-curvature="0"
   style="fill:#000000;fill-opacity:1" />
<path
   d="m 46.026732,-8.8161522 c 0.02712,-0.16955 0.138123,-0.85789 0.138123,-0.85789 0.03067,-0.1921 0.21086,-0.32262 0.402966,-0.2917 l 1.222582,0.19565 c 0.191599,0.0304 0.32212,0.21137 0.291454,0.40297 0,0 -0.111006,0.68909 -0.13711,0.85839 -0.02712,0.1693 0.32516,0.32389 0.32516,0.32389 l -0.108471,0.67541 c -0.03067,0.19211 -0.211367,0.32314 -0.403473,0.29272 l -0.978522,-0.15738 -0.979029,-0.15662 c -0.191852,-0.0304 -0.322626,-0.21112 -0.29196,-0.40221 l 0.108471,-0.67592 c 2.54e-4,-7.6e-4 0.383705,-0.038 0.409809,-0.20731 z"
   id="path3553"
   inkscape:connector-curvature="0"
   style="fill:#000000;fill-opacity:1" />
<path
   d="m 49.881258,-7.3175722 c 0.13863,-0.10062 0.70431,-0.50992 0.70431,-0.50992 0.15688,-0.11303 0.37661,-0.0786 0.49116,0.0793 l 0.72559,1.00285 c 0.11379,0.15713 0.0788,0.37737 -0.0788,0.49116 0,0 -0.56516,0.4088 -0.70329,0.50966 -0.13913,0.10087 5.1e-4,0.45923 5.1e-4,0.45923 l -0.55478,0.40145 c -0.15687,0.11404 -0.37711,0.0783 -0.49141,-0.0791 l -0.580625,-0.80314 -0.581133,-0.80365 c -0.1143,-0.15713 -0.07933,-0.37737 0.07831,-0.49116 l 0.554014,-0.40145 c 5.07e-4,2.6e-4 0.297534,0.24558 0.436164,0.14472 z"
   id="path3555"
   inkscape:connector-curvature="0"
   style="fill:#000000;fill-opacity:1" />
<path
   d="m 51.490088,-3.7694522 c 0.16929,0.0271 0.85839,0.13737 0.85839,0.13737 0.1921,0.0301 0.32212,0.21086 0.29095,0.40321 l -0.19515,1.2218301 c -0.0307,0.1921 -0.21137,0.32262 -0.40347,0.29145 0,0 -0.6891,-0.1105 -0.85738,-0.13711 -0.1693,-0.0271 -0.32415,0.32491 -0.32415,0.32491 l -0.67617,-0.10822 c -0.19211,-0.0302 -0.32212,-0.21137 -0.29145,-0.40195 l 0.15687,-0.98005 0.15587,-0.9780101 c 0.0317,-0.19211 0.21136,-0.32313 0.40398,-0.29247 l 0.67566,0.10822 c 0,2.5e-4 0.0373,0.3832 0.20605,0.41082 z"
   id="path3557"
   inkscape:connector-curvature="0"
   style="fill:#000000;fill-opacity:1" />
<path
   d="m 49.992268,0.08431781 c 0.10011,0.13813 0.5089,0.70355 0.5089,0.70355 0.1143,0.15763 0.0793,0.37710999 -0.0783,0.49191999 l -1.002849,0.72559 c -0.157385,0.11329 -0.377115,0.0783 -0.491923,-0.0793 0,0 -0.408794,-0.5644 -0.509409,-0.70379 -0.100108,-0.13914 -0.458468,0.001 -0.458468,0.001 L 47.558773,0.66876781 c -0.114807,-0.15738 -0.07882,-0.37711 0.07882,-0.49141 l 0.80289,-0.58113 0.80289,-0.58164 c 0.157891,-0.11354001 0.377625,-0.0783 0.491415,0.0791 l 0.40094,0.55452 c 0,0 -0.24406,0.29652 -0.14345,0.43591 z"
   id="path3559"
   inkscape:connector-curvature="0"
   style="fill:#000000;fill-opacity:1" />
<path
   d="m 46.444143,1.6928878 c -0.02712,0.1698 -0.137109,0.85865 -0.137109,0.85865 -0.03168,0.19134 -0.211874,0.32237 -0.402966,0.2917 l -1.22309,-0.19514 c -0.192105,-0.0312 -0.322626,-0.21188 -0.29196,-0.40449 0,0 0.111006,-0.68859 0.137617,-0.85789 0.02661,-0.1698 -0.325667,-0.32414 -0.325667,-0.32414 l 0.108724,-0.67566999 c 0.03092,-0.1916 0.211114,-0.32262 0.402713,-0.29196 l 0.978522,0.15688 0.980043,0.15688 c 0.191599,0.0309 0.322119,0.21137 0.290946,0.40373 L 46.853445,1.4868478 c 10e-4,5e-4 -0.381677,0.037 -0.409302,0.20604 z"
   id="path3561"
   inkscape:connector-curvature="0"
   style="fill:#000000;fill-opacity:1" />
<path
   d="m 42.590119,0.19507781 c -0.138884,0.0999 -0.703796,0.50915 -0.703796,0.50915 -0.157385,0.11329 -0.377622,0.0786 -0.491923,-0.0788 l -0.725591,-1.00285 c -0.114301,-0.15738 -0.07857,-0.37712 0.07907,-0.49116 0,0 0.564913,-0.40853991 0.70405,-0.50991991 0.13863,-0.10036 -10e-4,-0.45847 -10e-4,-0.45847 l 0.554521,-0.40119 c 0.157132,-0.11455 0.377369,-0.0793 0.491162,0.0783 l 0.580879,0.80365 0.581893,0.80238991 c 0.113793,0.15764 0.07831,0.37762 -0.07933,0.49167 l -0.553761,0.40119 c 0,0 -0.297283,-0.24508 -0.436166,-0.14395 z"
   id="path3563"
   inkscape:connector-curvature="0"
   style="fill:#000000;fill-opacity:1" />
<path
   d="m 40.981044,-3.3535622 c -0.169043,-0.0266 -0.85814,-0.13711 -0.85814,-0.13711 -0.191598,-0.0309 -0.322626,-0.21136 -0.29196,-0.40296 l 0.195147,-1.22208 c 0.03193,-0.19236 0.212381,-0.32313 0.40398,-0.29221 0,0 0.689096,0.10999 0.858899,0.13685 0.16879,0.0276 0.323133,-0.3249 0.323133,-0.3249 l 0.676172,0.10847 c 0.191091,0.0304 0.322372,0.21086 0.291453,0.40296 l -0.156878,0.97878 -0.156371,0.97852 c -0.03117,0.1923601 -0.211367,0.3226301 -0.403473,0.2922201 l -0.675664,-0.10822 c -5.07e-4,5.1e-4 -0.03675,-0.3829501 -0.206298,-0.4103201 z"
   id="path3565"
   inkscape:connector-curvature="0"
   style="fill:#000000;fill-opacity:1" />
<path
   d="m 41.907865,-6.2239922 c 1.470191,-2.38992 4.599638,-3.13553 6.99006,-1.66509 2.389913,1.47045 3.136293,4.59964 1.665083,6.99007001 -1.470189,2.39015999 -4.599382,3.13551999 -6.989805,1.66533 -2.390423,-1.47044 -3.135783,-4.60014001 -1.665338,-6.99031001 z m 3.692585,3.6948701 c 0.569981,0.3505 1.316861,0.17284 1.667872,-0.39739 0.350504,-0.5702401 0.172338,-1.3166101 -0.397897,-1.6671201 -0.569727,-0.35075 -1.316608,-0.17309 -1.666605,0.39714 -0.351264,0.57023 -0.173351,1.3166101 0.39663,1.6673701 z m -1.814106,-2.0226901 c 0.114047,0.0705 0.264082,0.0345 0.334284,-0.0796 l 0.206298,-0.3353 c 0.0702,-0.11455 0.03447,-0.26408 -0.07958,-0.33428 l -0.884244,-0.54388 c -0.1143,-0.0704 -0.263575,-0.0347 -0.333777,0.0796 l -0.206298,0.3353 c -0.06995,0.1143 -0.03523,0.26408 0.07933,0.33428 l 0.88399,0.54388 z m 3.439907,-1.45879 c -0.0702,0.1143 -0.03523,0.26409 0.07933,0.33403 l 0.335552,0.20656 c 0.113793,0.0699 0.263828,0.0342 0.33403,-0.0803 l 0.543624,-0.88374 c 0.07071,-0.11405 0.03523,-0.26383 -0.07933,-0.33378 l -0.335044,-0.20655 c -0.114808,-0.0702 -0.263829,-0.0345 -0.334031,0.0796 l -0.544131,0.88424 z m 1.458533,3.4394001 c -0.1143,-0.0702 -0.263828,-0.0345 -0.33403,0.0796 l -0.206298,0.33556 c -0.0702,0.1143 -0.03523,0.26408 0.07933,0.33428 l 0.88399,0.54388 c 0.114807,0.0702 0.264335,0.0342 0.33403,-0.0798 l 0.206302,-0.33529 c 0.0702,-0.1143 0.0352,-0.26383 -0.0788,-0.33404 l -0.8845,-0.54413 z m -3.439907,1.4587899 c 0.07046,-0.1140499 0.03472,-0.2635699 -0.07933,-0.3335199 l -0.335551,-0.20681 c -0.114047,-0.07 -0.263829,-0.0342 -0.334031,0.0798 l -0.543624,0.88373991 c -0.07045,0.11456 -0.03497,0.26434 0.07933,0.33429 l 0.335805,0.20655 c 0.11354,0.0697 0.263575,0.0342 0.333777,-0.0801 l 0.543624,-0.88399001 z"
   id="path3567"
   inkscape:connector-curvature="0"
   style="fill:#000000;fill-opacity:1" />
<path
   d="m 10.518866,-39.369063 c 0.04942,-0.17259 0.248876,-0.87461 0.248876,-0.87461 0.05652,-0.19489 -0.05728,-0.39866 -0.252677,-0.45441 l -1.2453918,-0.35482 c -0.195401,-0.0555 -0.399165,0.0578 -0.454667,0.25344 0,0 -0.200216,0.70177 -0.248623,0.87436 -0.04993,0.17234 -0.452132,0.16296 -0.452132,0.16296 l -0.196414,0.68834 c -0.0555,0.19565 0.05778,0.39967 0.253437,0.45492 l 0.997277,0.28435 0.9972768,0.28436 c 0.1954,0.0558 0.399417,-0.058 0.454413,-0.25344 l 0.196414,-0.68859 c 2.54e-4,-2.5e-4 -0.346702,-0.20427 -0.297789,-0.37686 z"
   id="path3569"
   inkscape:connector-curvature="0"
   style="fill:#000000;fill-opacity:1" />
<path
   d="m 6.4565162,-39.681553 c -0.08744,-0.15687 -0.442249,-0.79402 -0.442249,-0.79402 -0.09884,-0.17766 -0.322879,-0.24178 -0.500539,-0.14268 l -1.131598,0.62954 c -0.177913,0.0986 -0.241273,0.32313 -0.142686,0.50054 0,0 0.355066,0.63739 0.442249,0.79452 0.08769,0.15663 -0.204017,0.43465 -0.204017,0.43465 l 0.348223,0.62498 c 0.09909,0.17791 0.323133,0.24203 0.501299,0.14319 l 0.905786,-0.50485 0.906039,-0.50409 c 0.177913,-0.0986 0.241273,-0.32288 0.142939,-0.49978 l -0.348477,-0.62573 c -5.07e-4,0 -0.390293,0.10061 -0.476969,-0.0563 z"
   id="path3571"
   inkscape:connector-curvature="0"
   style="fill:#000000;fill-opacity:1" />
<path
   d="m 3.2044052,-36.829873 c -0.17259,-0.0494 -0.874612,-0.24913 -0.874612,-0.24913 -0.195147,-0.055 -0.398658,0.0578 -0.454667,0.25344 l -0.354559,1.24539 c -0.0555,0.1949 0.05804,0.39866 0.253184,0.45442 0,0 0.701768,0.19971 0.874106,0.24887 0.172591,0.0497 0.163467,0.45163 0.163467,0.45163 l 0.688843,0.19616 c 0.19464,0.056 0.398657,-0.058 0.454414,-0.25319 l 0.284103,-0.99753 0.28385,-0.99753 c 0.05576,-0.1954 -0.05778,-0.39916 -0.252931,-0.45492 l -0.688082,-0.19616 c -5.07e-4,10e-4 -0.204525,0.34797 -0.377116,0.29855 z"
   id="path3573"
   inkscape:connector-curvature="0"
   style="fill:#000000;fill-opacity:1" />
<path
   d="m 2.8926772,-32.767013 c -0.156878,0.0872 -0.79478,0.44225 -0.79478,0.44225 -0.177913,0.0986 -0.241019,0.32262 -0.142432,0.50054 l 0.629032,1.13134 c 0.09935,0.17766 0.323387,0.24153 0.5013,0.14218 0,0 0.637395,-0.35507 0.793766,-0.44149 0.156624,-0.0874 0.434899,0.20351 0.434899,0.20351 l 0.625737,-0.34822 c 0.177913,-0.0986 0.241019,-0.32288 0.142939,-0.49953 l -0.504848,-0.90705 -0.50358,-0.90553 c -0.0996,-0.17741 -0.323133,-0.24203 -0.501553,-0.14294 l -0.625737,0.34822 c 2.53e-4,-5e-4 0.101375,0.38928 -0.05474,0.47672 z"
   id="path3575"
   inkscape:connector-curvature="0"
   style="fill:#000000;fill-opacity:1" />
<path
   d="m 5.7435962,-29.515153 c -0.04917,0.17132 -0.249129,0.87334 -0.249129,0.87334 -0.05576,0.19591 0.05728,0.39942 0.253438,0.45568 l 1.245138,0.35431 c 0.1954,0.055 0.399164,-0.0578 0.455427,-0.25369 0,0 0.199709,-0.70101 0.248369,-0.87385 0.04866,-0.1726 0.451372,-0.16297 0.451372,-0.16297 l 0.196161,-0.68884 c 0.05601,-0.19565 -0.05804,-0.39866 -0.253437,-0.45517 l -0.997024,-0.28385 -0.997023,-0.28461 c -0.195907,-0.055 -0.399671,0.0583 -0.455427,0.25369 l -0.195654,0.68833 c 2.53e-4,5.1e-4 0.346956,0.20478 0.297789,0.37763 z"
   id="path3577"
   inkscape:connector-curvature="0"
   style="fill:#000000;fill-opacity:1" />
<path
   d="m 9.8062002,-29.203683 c 0.08769,0.15739 0.4422478,0.79478 0.4422478,0.79478 0.09935,0.1769 0.323133,0.24127 0.500286,0.14269 l 1.131852,-0.62929 c 0.17766,-0.0994 0.241526,-0.32338 0.142685,-0.50206 0,0 -0.355319,-0.63714 -0.442248,-0.79376 -0.08718,-0.15714 0.203764,-0.43516 0.203764,-0.43516 l -0.348224,-0.62523 c -0.09909,-0.1774 -0.322879,-0.24178 -0.500792,-0.14294 l -0.905279,0.50434 -0.9073058,0.50485 c -0.177407,0.0991 -0.241273,0.32314 -0.141925,0.50105 l 0.348223,0.62523 c -2.54e-4,7.6e-4 0.38928,-0.10036 0.476716,0.0555 z"
   id="path3579"
   inkscape:connector-curvature="0"
   style="fill:#000000;fill-opacity:1" />
<path
   d="m 13.058057,-32.054093 c 0.172591,0.0484 0.874359,0.24862 0.874359,0.24862 0.195147,0.055 0.398911,-0.058 0.455427,-0.25318 l 0.354306,-1.24565 c 0.05576,-0.1954 -0.05804,-0.39866 -0.253437,-0.45441 0,0 -0.701515,-0.19971 -0.87436,-0.24913 -0.172337,-0.0489 -0.163467,-0.45087 -0.163467,-0.45087 l -0.688336,-0.1959 c -0.195401,-0.0563 -0.399418,0.057 -0.454921,0.25293 l -0.283596,0.99753 -0.285118,0.99677 c -0.0555,0.19565 0.05804,0.39942 0.253945,0.45517 l 0.687576,0.19616 c 5.07e-4,-5e-4 0.205284,-0.34797 0.377622,-0.29804 z"
   id="path3581"
   inkscape:connector-curvature="0"
   style="fill:#000000;fill-opacity:1" />
<path
   d="m 13.370038,-36.117453 c 0.156878,-0.0869 0.794527,-0.44175 0.794527,-0.44175 0.177406,-0.0991 0.241273,-0.32313 0.142939,-0.50054 l -0.629032,-1.13109 c -0.09985,-0.17791 -0.323893,-0.24178 -0.501553,-0.14268 0,0 -0.637649,0.35456 -0.79478,0.44174 -0.156118,0.0877 -0.433885,-0.20376 -0.433885,-0.20376 l -0.625991,0.34847 c -0.176899,0.0983 -0.241526,0.32263 -0.142432,0.50054 l 0.504341,0.90629 0.504087,0.90554 c 0.09935,0.17791 0.32288,0.24178 0.501046,0.14293 l 0.625484,-0.34796 c 0,-5.1e-4 -0.101375,-0.3903 0.05525,-0.47773 z"
   id="path3583"
   inkscape:connector-curvature="0"
   style="fill:#000000;fill-opacity:1" />
<path
   d="m 12.296224,-31.141213 c -1.82323,2.3002 -5.1658178,2.68669 -7.4657628,0.86346 -2.300199,-1.82323 -2.687198,-5.16556 -0.863969,-7.46576 1.82323,-2.3002 5.166071,-2.6872 7.4660158,-0.86397 2.300199,1.82323 2.686945,5.16607 0.863716,7.46627 z m -3.3775618,-4.2945 c -0.548693,-0.4349 -1.346261,-0.34265 -1.780906,0.20605 -0.434899,0.54844 -0.342901,1.346 0.206045,1.7809 0.548945,0.43515 1.34626,0.3424 1.780905,-0.20604 0.434899,-0.54869 0.342901,-1.34601 -0.206044,-1.78091 z m 1.9403168,-1.7069 c 0.08718,-0.10999 0.06843,-0.26966 -0.04156,-0.35684 l -0.32288,-0.25572 c -0.109992,-0.0872 -0.269657,-0.0689 -0.35684,0.0411 l -0.6743968,0.85079 c -0.08718,0.10999 -0.06868,0.26966 0.04131,0.35709 l 0.322626,0.25572 c 0.109992,0.0872 0.2699108,0.0687 0.3570938,-0.0413 l 0.67465,-0.85079 z m -5.4281248,-0.0271 c -0.109992,-0.0869 -0.269657,-0.0687 -0.35684,0.0413 l -0.255972,0.32288 c -0.08693,0.10974 -0.06868,0.26941 0.04131,0.35659 l 0.850789,0.6744 c 0.109992,0.0872 0.270165,0.0689 0.357094,-0.0405 l 0.255972,-0.32314 c 0.08718,-0.10973 0.06843,-0.26965 -0.04156,-0.35684 l -0.85079,-0.67465 z m -0.02686,5.42787 c -0.08744,0.11 -0.06818,0.26941 0.04182,0.35659 l 0.322879,0.25597 c 0.109739,0.0869 0.269658,0.0692 0.35684,-0.0408 l 0.674651,-0.85079 c 0.08693,-0.10999 0.06792,-0.26966 -0.04207,-0.35709 l -0.32288,-0.25572 c -0.109738,-0.0872 -0.269657,-0.0689 -0.356586,0.0408 l -0.674651,0.85104 z m 5.4278708,0.0269 c 0.109992,0.0872 0.269911,0.0687 0.356841,-0.0408 l 0.256225,-0.32314 c 0.08693,-0.10974 0.06868,-0.2694 -0.04156,-0.35684 l -0.850536,-0.67439 c -0.109992,-0.0869 -0.269658,-0.0687 -0.35684,0.0413 l -0.2559718,0.32313 c -0.08693,0.10948 -0.06868,0.2694 0.04131,0.35633 l 0.8505358,0.6744 z"
   id="path3585"
   inkscape:connector-curvature="0"
   style="fill:#000000;fill-opacity:1" />
<path
   clip-rule="evenodd"
   d="m 55.785088,-9.2687922 0.16347,1.32041 c 0.82012,-0.10137 1.63441,-0.2471 2.43832,-0.43515 l -0.30337,-1.29557 c -0.75854,0.17766 -1.52569,0.31476 -2.29842,0.41031 z"
   id="path3587"
   inkscape:connector-curvature="0"
   style="fill:#000000;fill-opacity:1;fill-rule:evenodd" />
<polygon
   clip-rule="evenodd"
   points="413.083,158.475 410.529,153.889 402.808,158.159 405.335,162.761 "
   id="polygon3589"
   transform="matrix(0.25343753,0,0,0.25343753,-45.732355,-43.107523)"
   style="fill:#000000;fill-opacity:1;fill-rule:evenodd" />
<polygon
   clip-rule="evenodd"
   points="400.175,166.132 397.664,161.521 389.904,165.733 392.402,170.351 "
   id="polygon3591"
   transform="matrix(0.25343753,0,0,0.25343753,-45.732355,-43.107523)"
   style="fill:#000000;fill-opacity:1;fill-rule:evenodd" />
<path
   clip-rule="evenodd"
   d="m 59.616298,-10.176102 0.4088,1.2659198 c 0.78565,-0.25343 1.55687,-0.54818 2.3111,-0.88069 l -0.53653,-1.2175108 c -0.71318,0.314511 -1.44232,0.593041 -2.18337,0.832281 z"
   id="path3593"
   inkscape:connector-curvature="0"
   style="fill:#000000;fill-opacity:1;fill-rule:evenodd" />
<path
   clip-rule="evenodd"
   d="m 52.137868,-9.1841422 -0.1257,1.32472 c 0.83609,0.0786 1.6666,0.095 2.49483,0.0664 l -0.0466,-1.32979 c -0.77653,0.0269 -1.55509,0.0109 -2.3225,-0.0613 z"
   id="path3595"
   inkscape:connector-curvature="0"
   style="fill:#000000;fill-opacity:1;fill-rule:evenodd" />

<path
   clip-rule="evenodd"
   d="m 69.590588,-16.710983 0.96534,0.91567 c 0.5634,-0.59254 1.10094,-1.20763 1.6182,-1.83844 l -1.02997,-0.84192 c -0.49775,0.60622 -1.01349,1.19699 -1.55357,1.76469 z"
   id="path3599"
   inkscape:connector-curvature="0"
   style="fill:#000000;fill-opacity:1;fill-rule:evenodd" />
<path
   clip-rule="evenodd"
   d="m 66.482938,-13.877803 0.8186,1.04872 c 0.64703,-0.5051 1.27074,-1.03859 1.87063,-1.59615 l -0.90528,-0.97472 c -0.57328,0.53273 -1.1681,1.04163 -1.78395,1.52215 z"
   id="path3601"
   inkscape:connector-curvature="0"
   style="fill:#000000;fill-opacity:1;fill-rule:evenodd" />
<path
   clip-rule="evenodd"
   d="m 62.986258,-11.583943 0.63258,1.170631 c 0.72407,-0.39182 1.42914,-0.818351 2.11164,-1.276821 l -0.74155,-1.10474 c -0.6483,0.43541 -1.31661,0.8399 -2.00267,1.21093 z"
   id="path3603"
   inkscape:connector-curvature="0"
   style="fill:#000000;fill-opacity:1;fill-rule:evenodd" />

<path
   clip-rule="evenodd"
   d="m 75.870518,-27.623243 1.21777,0.53627 c 0.31679,-0.71849 0.64297,-1.42787 0.99297,-2.11798 l -1.18711,-0.60115 c -0.36469,0.71976 -0.7005,1.45042 -1.02363,2.18286 z"
   id="path3607"
   inkscape:connector-curvature="0"
   style="fill:#000000;fill-opacity:1;fill-rule:evenodd" />
<path
   clip-rule="evenodd"
   d="m 74.183638,-23.691163 1.21675,0.53805 c 0.32618,-0.73674 0.63613,-1.47374 0.94583,-2.20541 l -1.22562,-0.51854 c -0.31046,0.73269 -0.61788,1.46386 -0.93696,2.1859 z"
   id="path3609"
   inkscape:connector-curvature="0"
   style="fill:#000000;fill-opacity:1;fill-rule:evenodd" />
<path
   clip-rule="evenodd"
   d="m 72.289698,-19.967403 1.10245,0.74663 c 0.0702,-0.0897 0.12216,-0.18907 0.18071,-0.28537 l 0.16245,-0.28081 0.30007,-0.53881 c 0.19464,-0.3614 0.38066,-0.72534 0.56035,-1.0908 l -1.19445,-0.5862 c -0.17335,0.35203 -0.35152,0.70076 -0.53653,1.04492 -0.18932,0.34215 -0.37711,0.68986 -0.57505,0.99044 z"
   id="path3611"
   inkscape:connector-curvature="0"
   style="fill:#000000;fill-opacity:1;fill-rule:evenodd" />

<path
   clip-rule="evenodd"
   d="m 66.513608,-8.8052522 0.70329,1.12932 c 0.63764,-0.39714 1.27174,-0.79935 1.9028,-1.20713 l -0.72229,-1.1173998 c -0.62447,0.4034698 -1.25274,0.8016198 -1.8838,1.1952098 z"
   id="path3615"
   inkscape:connector-curvature="0"
   style="fill:#000000;fill-opacity:1;fill-rule:evenodd" />
<polygon
   clip-rule="evenodd"
   points="439.666,143.498 436.941,139.01 429.38,143.534 432.046,148.056 "
   id="polygon3617"
   transform="matrix(0.25343753,0,0,0.25343753,-45.732355,-43.107523)"
   style="fill:#000000;fill-opacity:1;fill-rule:evenodd" />
<polygon
   clip-rule="evenodd"
   points="426.011,151.579 423.384,147.033 415.73,151.408 418.314,155.979 "
   id="polygon3619"
   transform="matrix(0.25343753,0,0,0.25343753,-45.732355,-43.107523)"
   style="fill:#000000;fill-opacity:1;fill-rule:evenodd" />

<path
   clip-rule="evenodd"
   d="m 76.358128,-15.671383 0.82722,1.04188 c 0.59051,-0.46911 1.1757,-0.94583 1.75278,-1.43218 l -0.85687,-1.01805 c -0.56745,0.47823 -1.14199,0.94684 -1.72313,1.40835 z"
   id="path3623"
   inkscape:connector-curvature="0"
   style="fill:#000000;fill-opacity:1;fill-rule:evenodd" />
<path
   clip-rule="evenodd"
   d="m 73.173688,-13.259923 0.77957,1.07787 c 0.61028,-0.44124 1.21524,-0.88982 1.81512,-1.34626 l -0.80593,-1.05887 c -0.59025,0.4496 -1.18735,0.89185 -1.78876,1.32726 z"
   id="path3625"
   inkscape:connector-curvature="0"
   style="fill:#000000;fill-opacity:1;fill-rule:evenodd" />
<path
   clip-rule="evenodd"
   d="m 69.900288,-10.987602 0.73903,1.1067598 c 0.62523,-0.4174098 1.24691,-0.8409098 1.86403,-1.2712408 l -0.76082,-1.09156 c -0.60952,0.42502 -1.22385,0.84344 -1.84224,1.256041 z"
   id="path3627"
   inkscape:connector-curvature="0"
   style="fill:#000000;fill-opacity:1;fill-rule:evenodd" />

<path
   clip-rule="evenodd"
   d="m 84.367518,-24.382543 1.09156,0.76082 c 0.41487,-0.59481 0.84344,-1.16302 1.31027,-1.67927 l -0.9879,-0.8916 c -0.5193,0.57505 -0.9803,1.18888 -1.41393,1.81005 z"
   id="path3631"
   inkscape:connector-curvature="0"
   style="fill:#000000;fill-opacity:1;fill-rule:evenodd" />
<path
   clip-rule="evenodd"
   d="m 82.121298,-21.068843 1.07179,0.78819 c 0.45898,-0.62396 0.87918,-1.25958 1.2905,-1.88405 l -1.11183,-0.73168 c -0.40955,0.6232 -0.81733,1.23855 -1.25046,1.82754 z"
   id="path3633"
   inkscape:connector-curvature="0"
   style="fill:#000000;fill-opacity:1;fill-rule:evenodd" />
<path
   clip-rule="evenodd"
   d="m 79.439428,-18.250873 0.8812,0.99702 c 0.15308,-0.13711 0.24507,-0.21643 0.40449,-0.34366 0.15586,-0.12798 0.30742,-0.26053 0.45542,-0.39612 0.29703,-0.27067 0.57708,-0.55579 0.84496,-0.84876 l -0.98409,-0.89565 c -0.24305,0.26586 -0.49497,0.52183 -0.7588,0.76285 -0.13204,0.12089 -0.26636,0.23823 -0.40448,0.35151 -0.13965,0.10949 -0.30742,0.2542 -0.4387,0.37281 z"
   id="path3635"
   inkscape:connector-curvature="0"
   style="fill:#000000;fill-opacity:1;fill-rule:evenodd" />
<path
   clip-rule="evenodd"
   d="m 32.35327,-9.3506522 0.409301,-1.2661698 c -0.728632,-0.23519 -1.4451,-0.508651 -2.146362,-0.818101 l -0.536527,1.217511 c 0.742318,0.3276998 1.501364,0.6173798 2.273588,0.8667598 z"
   id="path3637"
   inkscape:connector-curvature="0"
   style="fill:#000000;fill-opacity:1;fill-rule:evenodd" />
<path
   clip-rule="evenodd"
   d="m 40.970146,-8.3173822 -0.125705,-1.32472 c -0.747387,0.0704 -1.510995,0.0862 -2.272068,0.0598 l -0.04688,1.32979 c 0.813534,0.0281 1.628589,0.0119 2.444658,-0.0649 z"
   id="path3639"
   inkscape:connector-curvature="0"
   style="fill:#000000;fill-opacity:1;fill-rule:evenodd" />

<path
   clip-rule="evenodd"
   d="m 21.985647,-16.386843 0.965344,-0.91567 c -0.532726,-0.56035 -1.042642,-1.14376 -1.534058,-1.74314 l -1.030223,0.84217 c 0.511437,0.62346 1.042642,1.23146 1.598937,1.81664 z"
   id="path3643"
   inkscape:connector-curvature="0"
   style="fill:#000000;fill-opacity:1;fill-rule:evenodd" />
<path
   clip-rule="evenodd"
   d="m 25.197208,-13.459383 0.818856,-1.04872 c -0.606983,-0.47368 -1.193184,-0.97523 -1.758349,-1.50035 l -0.905533,0.97472 c 0.591777,0.55021 1.20687,1.0766 1.845026,1.57435 z"
   id="path3645"
   inkscape:connector-curvature="0"
   style="fill:#000000;fill-opacity:1;fill-rule:evenodd" />
<path
   clip-rule="evenodd"
   d="m 28.825419,-11.079353 0.63258,-1.17062 c -0.674904,-0.36495 -1.332321,-0.76311 -1.970476,-1.19141 l -0.741559,1.10473 c 0.67237,0.45137 1.366282,0.87157 2.079455,1.2573 z"
   id="path3647"
   inkscape:connector-curvature="0"
   style="fill:#000000;fill-opacity:1;fill-rule:evenodd" />

<path
   clip-rule="evenodd"
   d="m 15.78099,-27.313793 1.217767,-0.53653 c -0.32516,-0.73649 -0.6635,-1.47323 -1.033011,-2.20187 l -1.187102,0.60116 c 0.354559,0.69923 0.683521,1.41468 1.002346,2.13724 z"
   id="path3651"
   inkscape:connector-curvature="0"
   style="fill:#000000;fill-opacity:1;fill-rule:evenodd" />
<path
   clip-rule="evenodd"
   d="m 17.468377,-23.380443 1.217007,-0.5378 c -0.317811,-0.71799 -0.62447,-1.44738 -0.934678,-2.18058 l -1.22537,0.51854 c 0.3097,0.73193 0.618894,1.4674 0.943041,2.19984 z"
   id="path3653"
   inkscape:connector-curvature="0"
   style="fill:#000000;fill-opacity:1;fill-rule:evenodd" />
<path
   clip-rule="evenodd"
   d="m 19.443162,-19.509193 1.102453,-0.74662 c -0.05322,-0.0667 -0.09301,-0.14472 -0.13787,-0.21847 l -0.136603,-0.23519 -0.280048,-0.50332 c -0.182475,-0.3391 -0.358614,-0.68327 -0.529938,-1.03149 l -1.194198,0.58645 c 0.177914,0.36166 0.361656,0.72103 0.553508,1.07711 0.1954,0.35279 0.383704,0.70836 0.622696,1.07153 z"
   id="path3655"
   inkscape:connector-curvature="0"
   style="fill:#000000;fill-opacity:1;fill-rule:evenodd" />

<polygon
   clip-rule="evenodd"
   points="314.147,154.271 311.592,158.856 319.332,163.138 321.86,158.537 "
   id="polygon3659"
   transform="matrix(0.25343753,0,0,0.25343753,-45.732355,-43.107523)"
   style="fill:#000000;fill-opacity:1;fill-rule:evenodd" />
<polygon
   clip-rule="evenodd"
   points="328,160.896 325.488,165.506 333.257,169.724 335.756,165.106 "
   id="polygon3661"
   transform="matrix(0.25343753,0,0,0.25343753,-45.732355,-43.107523)"
   style="fill:#000000;fill-opacity:1;fill-rule:evenodd" />
<path
   clip-rule="evenodd"
   d="m 25.501333,-8.0763722 0.703796,-1.12931 c -0.629539,-0.39232 -1.256037,-0.78946 -1.878479,-1.1919198 l -0.722297,1.1174098 c 0.629032,0.40676 1.261612,0.8077 1.89698,1.20382 z"
   id="path3663"
   inkscape:connector-curvature="0"
   style="fill:#000000;fill-opacity:1;fill-rule:evenodd" />
<polygon
   clip-rule="evenodd"
   points="289.785,137.42 287.06,141.908 294.661,146.456 297.328,141.934 "
   id="polygon3665"
   transform="matrix(0.25343753,0,0,0.25343753,-45.732355,-43.107523)"
   style="fill:#000000;fill-opacity:1;fill-rule:evenodd" />
<polygon
   clip-rule="evenodd"
   points="301.313,145.427 298.685,149.972 306.37,154.365 308.955,149.795 "
   id="polygon3667"
   transform="matrix(0.25343753,0,0,0.25343753,-45.732355,-43.107523)"
   style="fill:#000000;fill-opacity:1;fill-rule:evenodd" />

<path
   clip-rule="evenodd"
   d="m 15.569369,-15.004333 0.827474,-1.04189 c -0.578345,-0.45948 -1.150607,-0.9258 -1.714759,-1.40151 l -0.856618,1.01806 c 0.574289,0.48432 1.156435,0.9585 1.743903,1.42534 z"
   id="path3671"
   inkscape:connector-curvature="0"
   style="fill:#000000;fill-opacity:1;fill-rule:evenodd" />
<path
   clip-rule="evenodd"
   d="m 18.787519,-12.567533 0.779827,-1.07787 c -0.599379,-0.43363 -1.193437,-0.87385 -1.781666,-1.32143 l -0.805677,1.05887 c 0.597098,0.45416 1.199773,0.90097 1.807516,1.34043 z"
   id="path3673"
   inkscape:connector-curvature="0"
   style="fill:#000000;fill-opacity:1;fill-rule:evenodd" />
<path
   clip-rule="evenodd"
   d="m 22.089557,-10.274682 0.73877,-1.106761 c -0.61636,-0.41133 -1.228158,-0.82824 -1.835395,-1.25148 l -0.760819,1.09156 c 0.614839,0.42856 1.234241,0.850531 1.857444,1.266681 z"
   id="path3675"
   inkscape:connector-curvature="0"
   style="fill:#000000;fill-opacity:1;fill-rule:evenodd" />

<path
   clip-rule="evenodd"
   d="m 7.3729462,-23.914183 1.091555,-0.76082 c -0.438953,-0.62904 -0.909333,-1.25604 -1.443833,-1.84807 l -0.987646,0.89134 c 0.481531,0.53349 0.919725,1.11487 1.339924,1.71755 z"
   id="path3679"
   inkscape:connector-curvature="0"
   style="fill:#000000;fill-opacity:1;fill-rule:evenodd" />
<path
   clip-rule="evenodd"
   d="m 9.6333552,-20.581233 1.0717878,-0.78844 c -0.425522,-0.5786 -0.8297548,-1.18812 -1.2390558,-1.81056 l -1.111324,0.73142 c 0.410569,0.62447 0.827474,1.25376 1.278592,1.86758 z"
   id="path3681"
   inkscape:connector-curvature="0"
   style="fill:#000000;fill-opacity:1;fill-rule:evenodd" />
<path
   clip-rule="evenodd"
   d="m 12.449807,-17.615753 0.881202,-0.99703 -0.220998,-0.1954 c -0.07578,-0.0664 -0.165748,-0.1328 -0.227333,-0.18602 -0.132548,-0.10898 -0.262054,-0.22201 -0.38928,-0.33834 -0.254451,-0.2324 -0.498258,-0.47976 -0.733955,-0.73776 l -0.983845,0.89565 c 0.260281,0.28512 0.532473,0.56162 0.819617,0.82367 0.143193,0.13128 0.289933,0.25927 0.440475,0.3832 0.153329,0.1219 0.267883,0.22049 0.414117,0.35203 z"
   id="path3683"
   inkscape:connector-curvature="0"
   style="fill:#000000;fill-opacity:1;fill-rule:evenodd" />
<circle
   cx="172.83299"
   cy="82.277"
   r="2.779"
   id="circle3685"
   sodipodi:cx="172.83299"
   sodipodi:cy="82.277"
   sodipodi:rx="2.779"
   sodipodi:ry="2.779"
   transform="matrix(0.25343753,0,0,0.25343753,-45.732355,-43.107523)"
   style="fill:#000000;fill-opacity:1" />
<circle
   cx="139.02499"
   cy="72.978996"
   r="2.779"
   id="circle3687"
   sodipodi:cx="139.02499"
   sodipodi:cy="72.978996"
   sodipodi:rx="2.779"
   sodipodi:ry="2.779"
   transform="matrix(0.25343753,0,0,0.25343753,-45.732355,-43.107523)"
   style="fill:#000000;fill-opacity:1" />
<circle
   cx="120.525"
   cy="32.189999"
   r="2.779"
   id="circle3689"
   sodipodi:cx="120.525"
   sodipodi:cy="32.189999"
   sodipodi:rx="2.779"
   sodipodi:ry="2.779"
   transform="matrix(0.25343753,0,0,0.25343753,-45.732355,-43.107523)"
   style="fill:#000000;fill-opacity:1" />
<rect
   x="-17.167088"
   y="-34.414894"
   transform="matrix(0.99835142,0.05739721,-0.05739721,0.99835142,0,0)"
   width="14.950753"
   height="0.76034957"
   id="rect3691"
   style="fill:#000000;fill-opacity:1" />
<rect
   x="-35.569775"
   y="-14.619598"
   transform="matrix(0.71988891,0.6940893,-0.6940893,0.71988891,0,0)"
   width="0.76007092"
   height="36.089046"
   id="rect3693"
   style="fill:#000000;fill-opacity:1" />
<rect
   x="-27.273308"
   y="-14.401069"
   transform="matrix(0.45929233,0.88828518,-0.88828518,0.45929233,0,0)"
   width="0.76032531"
   height="12.313721"
   id="rect3695"
   style="fill:#000000;fill-opacity:1" />
<rect
   x="-16.412611"
   y="-21.695324"
   transform="matrix(0.97213803,0.23440917,-0.23440917,0.97213803,0,0)"
   width="0.76028287"
   height="19.991892"
   id="rect3697"
   style="fill:#000000;fill-opacity:1" />
<rect
   x="-15.35311"
   y="-23.077286"
   transform="matrix(0.7990991,0.60119932,-0.60119932,0.7990991,0,0)"
   width="0.76031345"
   height="6.4084287"
   id="rect3699"
   style="fill:#000000;fill-opacity:1" />
<rect
   x="-22.179028"
   y="-3.5718291"
   transform="matrix(0.22770695,0.97372971,-0.97372971,0.22770695,0,0)"
   width="25.533812"
   height="0.76028937"
   id="rect3701"
   style="fill:#000000;fill-opacity:1" />
<rect
   x="-34.910252"
   y="-7.0045919"
   transform="matrix(0.39449853,0.91889657,-0.91889657,0.39449853,0,0)"
   width="0.76031542"
   height="15.676437"
   id="rect3703"
   style="fill:#000000;fill-opacity:1" />
<rect
   x="-20.989096"
   y="-19.41029"
   transform="matrix(0.79235255,0.61006347,-0.61006347,0.79235255,0,0)"
   width="0.76035815"
   height="12.557314"
   id="rect3705"
   style="fill:#000000;fill-opacity:1" />
<rect
   x="-1.665396"
   y="-25.464161"
   transform="matrix(0.9977057,0.06770039,-0.06770039,0.9977057,0,0)"
   width="0.76030827"
   height="10.385557"
   id="rect3707"
   style="fill:#000000;fill-opacity:1" />
<path
   clip-rule="evenodd"
   d="m 36.540058,-8.3224522 0.163214,-1.32041 c -0.758539,-0.0938 -1.512516,-0.2286 -2.257368,-0.4029698 l -0.303112,1.2955698 c 0.790725,0.18501 1.591081,0.32821 2.397266,0.42781 z"
   id="path3709"
   inkscape:connector-curvature="0"
   style="fill:#000000;fill-opacity:1;fill-rule:evenodd" />














</svg>