<?xml version="1.0" encoding="utf-8"?>
<!-- Generator: Adobe Illustrator 15.0.0, SVG Export Plug-In  -->
<!DOCTYPE svg PUBLIC "-//W3C//DTD SVG 1.1//EN" "http://www.w3.org/Graphics/SVG/1.1/DTD/svg11.dtd" [
	<!ENTITY ns_flows "http://ns.adobe.com/Flows/1.0/">
]>
<svg version="1.1"
	 xmlns="http://www.w3.org/2000/svg" xmlns:xlink="http://www.w3.org/1999/xlink" xmlns:a="http://ns.adobe.com/AdobeSVGViewerExtensions/3.0/"
	 x="0px" y="0px" width="800px" height="476px" viewBox="-40.508 -41.067 800 476" enable-background="new -40.508 -41.067 800 476"
	 xml:space="preserve">
<defs>
</defs>
<path fill-rule="evenodd" clip-rule="evenodd" d="M237,3.07c6.952,60.048,40.377,93.623,80,121c20.326-3.749,30.529-26.384,20-47
	c14.196,13.009,37.642,12.409,51.999,0c-10.49,18.268-0.98,40.069,14,47c46.922-22.08,75.236-62.765,86-121
	c131.08-20.062,191.553,75.708,237.002,153c-24.836-21.372-107.119-29.66-111.002,16c-25.662-28.864-78.361-5.73-80,31
	c-3.18,1.568-8.584-6.727-13-9c-26.023-13.401-59.221,7.589-73,18c6.203-34.373-30.371-50.213-54-33
	c-9.674,7.047-17.77,23.919-25,26c-22.862,6.582-30.667-29.554-52-33c-31.525-5.093-40.419,18.918-47,41
	c-8.778-21.219-60.514-36.906-73-8c-11.437-25.246-55.36-69.932-81-33c-10.364-38.565-89.917-42.325-117-16
	C39.215,80.352,109.968-18.757,237,3.07z"/>
<path fill="#FFFFFF" d="M349.025,94.048c1.752-0.085,3.102,0.271,4.331,0.761c1.214,0.507,2.271,1.186,3.187,2.02
	c0.922,0.829,1.699,1.815,2.319,2.974c0.604,1.176,1.087,2.488,1.163,4.246c-1.758,0.091-3.109-0.264-4.337-0.754
	c-1.213-0.507-2.269-1.188-3.181-2.026c-0.918-0.833-1.693-1.821-2.313-2.98C349.59,97.11,349.107,95.8,349.025,94.048z"/>
<path fill="#FFFFFF" d="M366.392,104.048c0.082-1.752,0.564-3.062,1.17-4.239c0.619-1.16,1.396-2.147,2.313-2.98
	c0.912-0.838,1.969-1.519,3.182-2.026c1.229-0.491,2.58-0.846,4.336-0.754c-0.076,1.758-0.557,3.07-1.162,4.246
	c-0.621,1.159-1.398,2.146-2.32,2.974c-0.916,0.833-1.973,1.512-3.186,2.02C369.494,103.776,368.144,104.133,366.392,104.048z"/>
<circle fill="#FFFFFF" cx="553.094" cy="82.552" r="2.778"/>
<circle fill="#FFFFFF" cx="586.901" cy="73.253" r="2.778"/>
<circle fill="#FFFFFF" cx="605.401" cy="32.465" r="2.778"/>
<rect x="574.456" y="4.603" transform="matrix(0.0573 0.9984 -0.9984 0.0573 577 -542.8657)" fill="#FFFFFF" width="3" height="58.99"/>
<rect x="583.623" y="82.219" transform="matrix(0.6941 0.7199 -0.7199 0.6941 260.5726 -445.7782)" fill="#FFFFFF" width="142.396" height="3"/>
<rect x="541.029" y="59.664" transform="matrix(0.8883 0.4593 -0.4593 0.8883 91.2598 -252.8347)" fill="#FFFFFF" width="48.587" height="3.001"/>
<rect x="556.708" y="109.166" transform="matrix(0.2345 0.9721 -0.9721 0.2345 563.9225 -494.8129)" fill="#FFFFFF" width="78.886" height="3"/>
<rect x="532.902" y="70.686" transform="matrix(0.6011 0.7992 -0.7992 0.6011 275.3056 -407.1889)" fill="#FFFFFF" width="25.286" height="3.001"/>
<rect x="540.173" y="80.967" transform="matrix(0.9737 0.2278 -0.2278 0.9737 44.1631 -119.9428)" fill="#FFFFFF" width="3.001" height="100.752"/>
<rect x="571.321" y="44.966" transform="matrix(0.9189 0.3945 -0.3945 0.9189 67.191 -233.8475)" fill="#FFFFFF" width="61.856" height="3"/>
<rect x="553.532" y="78.193" transform="matrix(0.61 0.7924 -0.7924 0.61 288.7059 -427.1796)" fill="#FFFFFF" width="49.545" height="3"/>
<rect x="524.633" y="88.723" transform="matrix(0.0677 0.9977 -0.9977 0.0677 598.2452 -459.756)" fill="#FFFFFF" width="40.979" height="2.999"/>
<path fill="#FFFFFF" d="M503.974,15.026c-0.195-0.681-0.982-3.451-0.982-3.451c-0.223-0.769,0.227-1.573,0.998-1.793l4.912-1.4
	c0.771-0.219,1.576,0.228,1.795,1c0,0,0.789,2.769,0.98,3.45c0.197,0.68,1.785,0.643,1.785,0.643l0.773,2.716
	c0.219,0.772-0.227,1.577-1,1.795l-3.934,1.122l-3.936,1.122c-0.771,0.22-1.576-0.229-1.793-1l-0.775-2.717
	C502.798,16.512,504.167,15.707,503.974,15.026z"/>
<path fill="#FFFFFF" d="M520.003,13.793c0.344-0.619,1.744-3.133,1.744-3.133c0.391-0.701,1.273-0.954,1.975-0.563l4.465,2.484
	c0.701,0.389,0.951,1.275,0.563,1.975c0,0-1.4,2.515-1.744,3.135c-0.346,0.618,0.807,1.715,0.807,1.715l-1.375,2.466
	c-0.391,0.702-1.275,0.955-1.977,0.565l-3.574-1.992l-3.576-1.989c-0.701-0.389-0.951-1.274-0.564-1.972l1.375-2.469
	C518.123,14.015,519.662,14.412,520.003,13.793z"/>
<path fill="#FFFFFF" d="M532.833,25.045c0.682-0.195,3.451-0.983,3.451-0.983c0.77-0.217,1.572,0.228,1.795,1l1.398,4.914
	c0.219,0.769-0.229,1.573-1,1.793c0,0-2.768,0.788-3.447,0.982c-0.682,0.196-0.646,1.782-0.646,1.782l-2.717,0.774
	c-0.768,0.221-1.574-0.229-1.793-0.999l-1.121-3.936l-1.119-3.936c-0.221-0.771,0.227-1.575,0.996-1.795l2.717-0.774
	C531.349,23.871,532.154,25.24,532.833,25.045z"/>
<path fill="#FFFFFF" d="M534.064,41.076c0.619,0.344,3.137,1.745,3.137,1.745c0.701,0.389,0.951,1.273,0.561,1.975l-2.482,4.464
	c-0.391,0.701-1.275,0.953-1.977,0.561c0,0-2.516-1.401-3.133-1.742c-0.617-0.345-1.715,0.803-1.715,0.803l-2.469-1.374
	c-0.703-0.389-0.951-1.274-0.564-1.971l1.992-3.579l1.986-3.573c0.393-0.7,1.275-0.955,1.979-0.564l2.469,1.374
	C533.847,39.193,533.449,40.73,534.064,41.076z"/>
<path fill="#FFFFFF" d="M522.816,53.907c0.193,0.676,0.982,3.446,0.982,3.446c0.221,0.773-0.227,1.576-1,1.798l-4.912,1.398
	c-0.77,0.217-1.574-0.228-1.797-1.001c0,0-0.787-2.766-0.98-3.448c-0.191-0.681-1.781-0.643-1.781-0.643l-0.773-2.718
	c-0.223-0.772,0.229-1.573,0.998-1.796l3.936-1.12l3.934-1.123c0.771-0.217,1.576,0.23,1.797,1.001l0.771,2.716
	C523.99,52.419,522.623,53.225,522.816,53.907z"/>
<path fill="#FFFFFF" d="M506.787,55.136c-0.346,0.621-1.744,3.136-1.744,3.136c-0.393,0.698-1.275,0.952-1.975,0.563l-4.467-2.483
	c-0.701-0.392-0.953-1.276-0.563-1.981c0,0,1.402-2.514,1.744-3.132c0.344-0.62-0.805-1.717-0.805-1.717l1.375-2.467
	c0.391-0.7,1.273-0.954,1.975-0.564l3.572,1.99l3.58,1.992c0.699,0.391,0.951,1.275,0.561,1.977l-1.375,2.467
	C508.667,54.919,507.13,54.521,506.787,55.136z"/>
<path fill="#FFFFFF" d="M493.955,43.889c-0.68,0.191-3.449,0.981-3.449,0.981c-0.77,0.217-1.574-0.229-1.797-0.999l-1.398-4.915
	c-0.221-0.771,0.229-1.573,1-1.793c0,0,2.768-0.788,3.449-0.983c0.68-0.193,0.645-1.779,0.645-1.779l2.717-0.773
	c0.771-0.222,1.574,0.225,1.795,0.998l1.117,3.936l1.125,3.933c0.219,0.772-0.229,1.576-1.002,1.796l-2.713,0.774
	C495.443,45.063,494.634,43.692,493.955,43.889z"/>
<path fill="#FFFFFF" d="M492.724,27.855c-0.619-0.343-3.135-1.743-3.135-1.743c-0.701-0.391-0.953-1.275-0.564-1.975l2.482-4.463
	c0.395-0.702,1.279-0.954,1.979-0.563c0,0,2.516,1.399,3.137,1.743c0.615,0.346,1.711-0.804,1.711-0.804l2.471,1.375
	c0.697,0.388,0.953,1.273,0.561,1.975l-1.988,3.576l-1.99,3.573c-0.391,0.702-1.273,0.954-1.977,0.564l-2.467-1.373
	C492.941,29.739,493.341,28.201,492.724,27.855z"/>
<path fill="#FFFFFF" d="M500.369,18.031c9.076-7.194,22.266-5.667,29.459,3.409s5.668,22.265-3.408,29.458
	s-22.264,5.669-29.459-3.407C489.767,38.415,491.292,25.225,500.369,18.031z M509.474,37.573c1.717,2.164,4.861,2.53,7.027,0.813
	c2.166-1.716,2.529-4.863,0.813-7.027c-1.715-2.165-4.861-2.529-7.025-0.813C508.123,32.262,507.759,35.408,509.474,37.573z
	 M505.292,27.168c0.344,0.434,0.977,0.506,1.41,0.163l1.273-1.009c0.434-0.345,0.506-0.975,0.162-1.409l-2.66-3.357
	c-0.344-0.434-0.975-0.506-1.408-0.162l-1.273,1.009c-0.434,0.344-0.508,0.974-0.164,1.408L505.292,27.168z M520.693,26.365
	c-0.434,0.344-0.508,0.976-0.164,1.408l1.01,1.275c0.344,0.432,0.975,0.504,1.41,0.16l3.355-2.661
	c0.434-0.343,0.506-0.974,0.164-1.407l-1.01-1.274c-0.344-0.434-0.975-0.506-1.408-0.163L520.693,26.365z M521.496,41.763
	c-0.344-0.433-0.975-0.505-1.408-0.161l-1.273,1.009c-0.434,0.344-0.51,0.975-0.166,1.409l2.662,3.357
	c0.344,0.434,0.975,0.504,1.408,0.161l1.273-1.01c0.434-0.344,0.51-0.973,0.164-1.407L521.496,41.763z M506.095,42.566
	c0.434-0.344,0.506-0.974,0.164-1.406l-1.01-1.275c-0.344-0.434-0.975-0.506-1.408-0.163l-3.357,2.661
	c-0.434,0.345-0.506,0.975-0.164,1.408l1.012,1.275c0.342,0.432,0.973,0.505,1.408,0.161L506.095,42.566z"/>
<path fill="#FFFFFF" d="M348.062,141.654c-0.397-0.548-2.01-2.78-2.01-2.78c-0.451-0.617-0.312-1.487,0.31-1.937l3.957-2.864
	c0.619-0.449,1.488-0.31,1.938,0.312c0,0,1.613,2.229,2.01,2.779c0.398,0.546,1.813-0.006,1.813-0.006l1.584,2.186
	c0.449,0.623,0.311,1.492-0.313,1.94l-3.167,2.294l-3.169,2.294c-0.62,0.449-1.49,0.31-1.937-0.312l-1.587-2.187
	C347.49,143.374,348.458,142.203,348.062,141.654z"/>
<path fill="#FFFFFF" d="M362.058,135.305c0.107-0.669,0.545-3.385,0.545-3.385c0.121-0.758,0.832-1.273,1.59-1.151l4.824,0.772
	c0.756,0.12,1.271,0.834,1.15,1.59c0,0-0.438,2.719-0.541,3.387c-0.107,0.668,1.283,1.278,1.283,1.278l-0.428,2.665
	c-0.121,0.758-0.834,1.275-1.592,1.155l-3.861-0.621l-3.863-0.618c-0.757-0.12-1.273-0.833-1.152-1.587l0.428-2.667
	C360.442,136.12,361.955,135.973,362.058,135.305z"/>
<path fill="#FFFFFF" d="M377.267,141.218c0.547-0.397,2.779-2.012,2.779-2.012c0.619-0.446,1.486-0.31,1.938,0.313l2.863,3.957
	c0.449,0.62,0.311,1.489-0.311,1.938c0,0-2.23,1.613-2.775,2.011c-0.549,0.398,0.002,1.812,0.002,1.812l-2.189,1.584
	c-0.619,0.45-1.488,0.309-1.939-0.312l-2.291-3.169l-2.293-3.171c-0.451-0.62-0.313-1.489,0.309-1.938l2.186-1.584
	C375.548,140.648,376.72,141.616,377.267,141.218z"/>
<path fill="#FFFFFF" d="M383.615,155.218c0.668,0.107,3.387,0.542,3.387,0.542c0.758,0.119,1.271,0.832,1.148,1.591l-0.77,4.821
	c-0.121,0.758-0.834,1.273-1.592,1.15c0,0-2.719-0.436-3.383-0.541c-0.668-0.107-1.279,1.282-1.279,1.282l-2.668-0.427
	c-0.758-0.119-1.271-0.834-1.15-1.586l0.619-3.867l0.615-3.859c0.125-0.758,0.834-1.275,1.594-1.154l2.666,0.427
	C382.802,153.598,382.949,155.109,383.615,155.218z"/>
<path fill="#FFFFFF" d="M377.705,170.424c0.395,0.545,2.008,2.776,2.008,2.776c0.451,0.622,0.313,1.488-0.309,1.941l-3.957,2.863
	c-0.621,0.447-1.488,0.309-1.941-0.313c0,0-1.613-2.227-2.01-2.777c-0.395-0.549-1.809,0.005-1.809,0.005l-1.584-2.188
	c-0.453-0.621-0.311-1.488,0.311-1.939l3.168-2.293l3.168-2.295c0.623-0.448,1.49-0.309,1.939,0.312l1.582,2.188
	C378.271,168.704,377.308,169.874,377.705,170.424z"/>
<path fill="#FFFFFF" d="M363.705,176.771c-0.107,0.67-0.541,3.388-0.541,3.388c-0.125,0.755-0.836,1.272-1.59,1.151l-4.826-0.77
	c-0.758-0.123-1.273-0.836-1.152-1.596c0,0,0.438-2.717,0.543-3.385c0.105-0.67-1.285-1.279-1.285-1.279l0.429-2.666
	c0.122-0.756,0.833-1.273,1.589-1.152l3.861,0.619l3.867,0.619c0.756,0.122,1.271,0.834,1.148,1.593l-0.428,2.665
	C365.324,175.96,363.814,176.104,363.705,176.771z"/>
<path fill="#FFFFFF" d="M348.498,170.861c-0.548,0.394-2.777,2.009-2.777,2.009c-0.621,0.447-1.49,0.31-1.941-0.311l-2.863-3.957
	c-0.451-0.621-0.31-1.488,0.312-1.938c0,0,2.229-1.612,2.778-2.012c0.547-0.396-0.004-1.809-0.004-1.809l2.188-1.583
	c0.62-0.452,1.489-0.313,1.938,0.309l2.292,3.171l2.296,3.166c0.449,0.622,0.309,1.49-0.313,1.94l-2.185,1.583
	C350.219,171.429,349.046,170.462,348.498,170.861z"/>
<path fill="#FFFFFF" d="M342.149,156.859c-0.667-0.105-3.386-0.541-3.386-0.541c-0.756-0.122-1.273-0.834-1.152-1.59l0.77-4.822
	c0.126-0.759,0.838-1.275,1.594-1.153c0,0,2.719,0.434,3.389,0.54c0.666,0.109,1.275-1.282,1.275-1.282l2.668,0.428
	c0.754,0.12,1.272,0.832,1.15,1.59l-0.619,3.862l-0.617,3.861c-0.123,0.759-0.834,1.273-1.592,1.153l-2.666-0.427
	C342.961,158.48,342.818,156.967,342.149,156.859z"/>
<path fill="#FFFFFF" d="M345.806,145.533c5.801-9.43,18.149-12.372,27.581-6.57c9.43,5.802,12.375,18.149,6.57,27.581
	c-5.801,9.431-18.148,12.372-27.58,6.571C342.945,167.313,340.004,154.964,345.806,145.533z M360.376,160.112
	c2.249,1.383,5.196,0.682,6.581-1.568c1.383-2.25,0.68-5.195-1.57-6.578c-2.248-1.384-5.195-0.683-6.576,1.567
	C357.425,155.783,358.127,158.728,360.376,160.112z M353.218,152.131c0.45,0.278,1.042,0.136,1.319-0.314l0.814-1.323
	c0.277-0.452,0.136-1.042-0.314-1.319l-3.489-2.146c-0.451-0.278-1.04-0.137-1.317,0.314l-0.814,1.323
	c-0.276,0.451-0.139,1.042,0.313,1.319L353.218,152.131z M366.791,146.375c-0.277,0.451-0.139,1.042,0.313,1.318l1.324,0.815
	c0.449,0.276,1.041,0.135,1.318-0.317l2.145-3.487c0.279-0.45,0.139-1.041-0.313-1.317l-1.322-0.815
	c-0.453-0.277-1.041-0.136-1.318,0.314L366.791,146.375z M372.546,159.946c-0.451-0.277-1.041-0.136-1.318,0.314l-0.814,1.324
	c-0.277,0.451-0.139,1.042,0.313,1.319l3.488,2.146c0.453,0.277,1.043,0.135,1.318-0.315l0.814-1.323
	c0.277-0.451,0.139-1.041-0.311-1.318L372.546,159.946z M358.973,165.702c0.278-0.45,0.137-1.04-0.313-1.316l-1.324-0.816
	c-0.45-0.276-1.041-0.135-1.318,0.315l-2.145,3.487c-0.278,0.452-0.138,1.043,0.313,1.319l1.325,0.815
	c0.448,0.275,1.04,0.135,1.317-0.316L358.973,165.702z"/>
<path fill="#FFFFFF" d="M221.953,14.751c0.195-0.681,0.982-3.451,0.982-3.451c0.223-0.769-0.226-1.573-0.997-1.793l-4.914-1.4
	c-0.771-0.219-1.575,0.228-1.794,1c0,0-0.79,2.769-0.981,3.45c-0.197,0.68-1.784,0.643-1.784,0.643l-0.775,2.716
	c-0.219,0.772,0.228,1.577,1,1.795l3.935,1.122l3.935,1.122c0.771,0.22,1.576-0.229,1.793-1l0.775-2.717
	C223.129,16.237,221.76,15.432,221.953,14.751z"/>
<path fill="#FFFFFF" d="M205.924,13.518c-0.345-0.619-1.745-3.133-1.745-3.133c-0.39-0.701-1.274-0.954-1.975-0.563l-4.465,2.484
	c-0.702,0.389-0.952,1.275-0.563,1.975c0,0,1.401,2.515,1.745,3.135c0.346,0.618-0.805,1.715-0.805,1.715l1.374,2.466
	c0.391,0.702,1.275,0.955,1.978,0.565l3.574-1.992l3.575-1.989c0.702-0.389,0.952-1.274,0.564-1.972l-1.375-2.469
	C207.804,13.74,206.266,14.137,205.924,13.518z"/>
<path fill="#FFFFFF" d="M193.092,24.77c-0.681-0.195-3.451-0.983-3.451-0.983c-0.77-0.217-1.573,0.228-1.794,1l-1.399,4.914
	c-0.219,0.769,0.229,1.573,0.999,1.793c0,0,2.769,0.788,3.449,0.982c0.681,0.196,0.645,1.782,0.645,1.782l2.718,0.774
	c0.768,0.221,1.573-0.229,1.793-0.999l1.121-3.936l1.12-3.936c0.22-0.771-0.228-1.575-0.998-1.795l-2.715-0.774
	C194.578,23.596,193.773,24.965,193.092,24.77z"/>
<path fill="#FFFFFF" d="M191.862,40.801c-0.619,0.344-3.136,1.745-3.136,1.745c-0.702,0.389-0.951,1.273-0.562,1.975l2.482,4.464
	c0.392,0.701,1.276,0.953,1.978,0.561c0,0,2.515-1.401,3.132-1.742c0.618-0.345,1.716,0.803,1.716,0.803l2.469-1.374
	c0.702-0.389,0.951-1.274,0.564-1.971l-1.992-3.579l-1.987-3.573c-0.393-0.7-1.275-0.955-1.979-0.564l-2.469,1.374
	C192.079,38.918,192.478,40.456,191.862,40.801z"/>
<path fill="#FFFFFF" d="M203.111,53.632c-0.194,0.676-0.983,3.446-0.983,3.446c-0.22,0.773,0.226,1.576,1,1.798l4.913,1.398
	c0.771,0.217,1.575-0.228,1.797-1.001c0,0,0.788-2.766,0.98-3.448c0.192-0.681,1.781-0.643,1.781-0.643l0.774-2.718
	c0.221-0.772-0.229-1.573-1-1.796l-3.934-1.12l-3.934-1.123c-0.773-0.217-1.577,0.23-1.797,1.001l-0.772,2.716
	C201.937,52.144,203.305,52.95,203.111,53.632z"/>
<path fill="#FFFFFF" d="M219.141,54.861c0.346,0.621,1.745,3.136,1.745,3.136c0.392,0.698,1.275,0.952,1.974,0.563l4.466-2.483
	c0.701-0.392,0.953-1.276,0.563-1.981c0,0-1.402-2.514-1.745-3.132c-0.344-0.62,0.804-1.717,0.804-1.717l-1.374-2.467
	c-0.391-0.7-1.274-0.954-1.976-0.564l-3.572,1.99l-3.58,1.992c-0.7,0.391-0.952,1.275-0.56,1.977l1.374,2.467
	C217.259,54.645,218.796,54.246,219.141,54.861z"/>
<path fill="#FFFFFF" d="M231.972,43.614c0.681,0.191,3.45,0.981,3.45,0.981c0.77,0.217,1.574-0.229,1.797-0.999l1.398-4.915
	c0.22-0.771-0.229-1.573-1-1.793c0,0-2.768-0.788-3.45-0.983c-0.68-0.193-0.645-1.779-0.645-1.779l-2.716-0.773
	c-0.771-0.222-1.576,0.225-1.795,0.998l-1.119,3.936l-1.125,3.933c-0.219,0.772,0.229,1.576,1.002,1.796l2.713,0.774
	C230.484,44.788,231.292,43.417,231.972,43.614z"/>
<path fill="#FFFFFF" d="M233.203,27.581c0.619-0.343,3.135-1.743,3.135-1.743c0.7-0.391,0.952-1.275,0.564-1.975l-2.482-4.463
	c-0.394-0.702-1.278-0.954-1.979-0.563c0,0-2.516,1.399-3.136,1.743c-0.616,0.346-1.712-0.804-1.712-0.804l-2.47,1.375
	c-0.698,0.388-0.953,1.273-0.562,1.975l1.99,3.576l1.989,3.573c0.392,0.702,1.274,0.954,1.977,0.564l2.468-1.373
	C232.985,29.464,232.585,27.926,233.203,27.581z"/>
<path fill="#FFFFFF" d="M228.966,47.216c-7.194,9.076-20.383,10.601-29.458,3.407c-9.076-7.194-10.603-20.382-3.409-29.458
	s20.384-10.603,29.459-3.409C234.634,24.95,236.16,38.14,228.966,47.216z M215.639,30.271c-2.165-1.716-5.312-1.352-7.027,0.813
	c-1.716,2.164-1.353,5.311,0.813,7.027c2.166,1.717,5.312,1.351,7.027-0.813C218.168,35.133,217.805,31.987,215.639,30.271z
	 M223.295,23.536c0.344-0.434,0.27-1.064-0.164-1.408l-1.274-1.009c-0.434-0.344-1.064-0.272-1.408,0.162l-2.661,3.357
	c-0.344,0.434-0.271,1.064,0.163,1.409l1.273,1.009c0.434,0.344,1.065,0.271,1.409-0.163L223.295,23.536z M201.877,23.429
	c-0.434-0.343-1.064-0.271-1.408,0.163l-1.01,1.274c-0.343,0.433-0.271,1.063,0.163,1.407l3.357,2.661
	c0.434,0.344,1.066,0.272,1.409-0.16l1.01-1.275c0.344-0.433,0.27-1.064-0.164-1.408L201.877,23.429z M201.771,44.846
	c-0.345,0.434-0.269,1.063,0.165,1.407l1.274,1.01c0.433,0.343,1.064,0.273,1.408-0.161l2.662-3.357
	c0.343-0.434,0.268-1.064-0.166-1.409l-1.274-1.009c-0.433-0.344-1.064-0.272-1.407,0.161L201.771,44.846z M223.188,44.952
	c0.434,0.344,1.065,0.271,1.408-0.161l1.011-1.275c0.343-0.433,0.271-1.063-0.164-1.408l-3.356-2.661
	c-0.434-0.343-1.064-0.271-1.408,0.163l-1.01,1.275c-0.343,0.432-0.271,1.063,0.163,1.406L223.188,44.952z"/>
<path fill-rule="evenodd" clip-rule="evenodd" fill="#FFFFFF" d="M400.562,133.519l0.645,5.21c3.236-0.4,6.449-0.975,9.621-1.717
	l-1.197-5.112C406.638,132.601,403.611,133.142,400.562,133.519z"/>
<polygon fill-rule="evenodd" clip-rule="evenodd" fill="#FFFFFF" points="402.808,158.159 405.335,162.761 413.083,158.475 
	410.529,153.889 "/>
<polygon fill-rule="evenodd" clip-rule="evenodd" fill="#FFFFFF" points="389.904,165.733 392.402,170.351 400.175,166.132 
	397.664,161.521 "/>
<path fill-rule="evenodd" clip-rule="evenodd" fill="#FFFFFF" d="M415.679,129.939l1.613,4.995c3.1-1,6.143-2.163,9.119-3.475
	l-2.117-4.804C421.48,127.896,418.603,128.995,415.679,129.939z"/>
<path fill-rule="evenodd" clip-rule="evenodd" fill="#FFFFFF" d="M386.171,133.853l-0.496,5.227c3.299,0.31,6.576,0.375,9.844,0.262
	l-0.184-5.247C392.271,134.201,389.199,134.138,386.171,133.853z"/>
<path fill="none" d="M437.976,151.351c9.709-4.745,18.643-10.755,26.605-17.552c7.98-6.817,14.953-14.338,21.143-22.357
	l-41.592-32.026c-4.137,5.363-8.74,10.289-13.623,14.45c-4.895,4.176-10.119,7.651-15.604,10.333L437.976,151.351z"/>
<path fill-rule="evenodd" clip-rule="evenodd" fill="#FFFFFF" d="M455.035,104.154l3.809,3.613c2.223-2.338,4.344-4.765,6.385-7.254
	l-4.064-3.322C459.201,99.583,457.166,101.914,455.035,104.154z"/>
<path fill-rule="evenodd" clip-rule="evenodd" fill="#FFFFFF" d="M442.773,115.333l3.23,4.138c2.553-1.993,5.014-4.098,7.381-6.298
	l-3.572-3.846C447.55,111.429,445.203,113.437,442.773,115.333z"/>
<path fill-rule="evenodd" clip-rule="evenodd" fill="#FFFFFF" d="M428.976,124.384l2.496,4.619c2.857-1.546,5.639-3.229,8.332-5.038
	l-2.926-4.359C434.32,121.324,431.683,122.92,428.976,124.384z"/>
<path fill="none" d="M485.724,111.442l1.17-1.542l1.256-1.695c0.643-0.884,1.324-1.774,1.826-2.686l1.35-2.332
	c1.332-2.342,2.545-4.653,3.668-6.915c2.244-4.525,4.129-8.845,5.863-12.905c3.447-8.121,6.357-15.201,9.41-20.745l-46.029-25.233
	c-5.066,9.303-8.469,17.95-11.658,25.369c-1.584,3.712-3.098,7.139-4.611,10.186c-0.756,1.524-1.512,2.955-2.27,4.287l-0.143,0.25
	c-0.037,0.066-0.111,0.2-0.096,0.164c-0.006-0.003-0.006-0.004-0.006-0.004c0.004,0.024,0.02-0.041,0.053-0.063
	c0,0,0.014-0.015,0.006-0.001l-0.088,0.122l-0.18,0.245l-0.367,0.49l-0.746,0.982L485.724,111.442z"/>
<path fill-rule="evenodd" clip-rule="evenodd" fill="#FFFFFF" d="M479.814,61.097l4.805,2.116c1.25-2.835,2.537-5.634,3.918-8.357
	l-4.684-2.372C482.414,55.324,481.089,58.207,479.814,61.097z"/>
<path fill-rule="evenodd" clip-rule="evenodd" fill="#FFFFFF" d="M473.158,76.612l4.801,2.123c1.287-2.907,2.51-5.815,3.732-8.702
	l-4.836-2.046C475.63,70.878,474.417,73.763,473.158,76.612z"/>
<path fill-rule="evenodd" clip-rule="evenodd" fill="#FFFFFF" d="M465.685,91.305l4.35,2.946c0.277-0.354,0.482-0.746,0.713-1.126
	l0.641-1.108l1.184-2.126c0.768-1.426,1.502-2.862,2.211-4.304l-4.713-2.313c-0.684,1.389-1.387,2.765-2.117,4.123
	C467.207,88.747,466.466,90.119,465.685,91.305z"/>
<path fill="none" d="M426.345,177.683c14.15-7.943,28.354-16.291,42.34-25.47l-28.809-43.882
	c-12.543,8.234-25.703,15.99-39.221,23.575L426.345,177.683z"/>
<path fill-rule="evenodd" clip-rule="evenodd" fill="#FFFFFF" d="M442.894,135.348l2.775,4.456c2.516-1.567,5.018-3.154,7.508-4.763
	l-2.85-4.409C447.863,132.224,445.384,133.795,442.894,135.348z"/>
<polygon fill-rule="evenodd" clip-rule="evenodd" fill="#FFFFFF" points="429.38,143.534 432.046,148.056 439.666,143.498 
	436.941,139.01 "/>
<polygon fill-rule="evenodd" clip-rule="evenodd" fill="#FFFFFF" points="415.73,151.408 418.314,155.979 426.011,151.579 
	423.384,147.033 "/>
<path fill="none" d="M468.685,152.212c13.979-9.181,27.756-19.199,40.855-30.488l-34.264-39.769
	c-10.939,9.432-22.861,18.142-35.4,26.374L468.685,152.212z"/>
<path fill-rule="evenodd" clip-rule="evenodd" fill="#FFFFFF" d="M481.738,108.256l3.264,4.111c2.33-1.851,4.639-3.732,6.916-5.651
	l-3.381-4.017C486.298,104.586,484.031,106.435,481.738,108.256z"/>
<path fill-rule="evenodd" clip-rule="evenodd" fill="#FFFFFF" d="M469.173,117.771l3.076,4.253c2.408-1.741,4.795-3.511,7.162-5.312
	l-3.18-4.178C473.902,114.308,471.546,116.053,469.173,117.771z"/>
<path fill-rule="evenodd" clip-rule="evenodd" fill="#FFFFFF" d="M456.257,126.737l2.916,4.367c2.467-1.647,4.92-3.318,7.355-5.016
	l-3.002-4.307C461.121,123.458,458.697,125.109,456.257,126.737z"/>
<path fill="none" d="M509.541,121.725c1.572-1.333,3.563-3.156,4.141-3.582c2.477-2.056,4.742-4.234,6.768-6.419
	c4.066-4.38,7.195-8.732,9.77-12.516c2.568-3.794,4.623-7.054,6.377-9.539c1.748-2.5,3.164-4.171,4.209-5.152l-36.109-38.101
	c-4.719,4.482-8.236,9.08-11.043,13.064c-2.807,4.007-4.971,7.468-6.861,10.236c-1.877,2.777-3.455,4.841-4.795,6.274
	c-0.672,0.724-1.279,1.292-1.854,1.771l-0.557,0.45l-0.473,0.381l-0.586,0.516l-1.209,1.07l-2.041,1.777L509.541,121.725z"/>
<path fill-rule="evenodd" clip-rule="evenodd" fill="#FFFFFF" d="M513.341,73.884l4.307,3.002c1.637-2.347,3.328-4.589,5.17-6.626
	l-3.898-3.518C516.871,69.011,515.052,71.433,513.341,73.884z"/>
<path fill-rule="evenodd" clip-rule="evenodd" fill="#FFFFFF" d="M504.478,86.959l4.229,3.11c1.811-2.462,3.469-4.97,5.092-7.434
	l-4.387-2.887C507.796,82.207,506.187,84.635,504.478,86.959z"/>
<path fill-rule="evenodd" clip-rule="evenodd" fill="#FFFFFF" d="M493.896,98.078l3.477,3.934c0.604-0.541,0.967-0.854,1.596-1.356
	c0.615-0.505,1.213-1.028,1.797-1.563c1.172-1.068,2.277-2.193,3.334-3.349l-3.883-3.534c-0.959,1.049-1.953,2.059-2.994,3.01
	c-0.521,0.477-1.051,0.94-1.596,1.387C495.076,97.039,494.414,97.61,493.896,98.078z"/>
<path fill-rule="evenodd" clip-rule="evenodd" fill="#FFFFFF" d="M308.106,133.196l1.615-4.996
	c-2.875-0.928-5.702-2.007-8.469-3.228l-2.117,4.804C302.064,131.069,305.059,132.212,308.106,133.196z"/>
<path fill-rule="evenodd" clip-rule="evenodd" fill="#FFFFFF" d="M342.106,137.273l-0.496-5.227
	c-2.949,0.278-5.962,0.34-8.965,0.236l-0.185,5.247C335.67,137.64,338.886,137.576,342.106,137.273z"/>
<path fill="none" d="M310.02,102.923c-5.484-2.682-10.708-6.156-15.603-10.333c-4.883-4.161-9.487-9.087-13.624-14.45
	l-41.592,32.026c6.189,8.02,13.162,15.541,21.144,22.357c7.961,6.797,16.896,12.807,26.605,17.552L310.02,102.923z"/>
<path fill-rule="evenodd" clip-rule="evenodd" fill="#FFFFFF" d="M267.198,105.433l3.809-3.613
	c-2.102-2.211-4.114-4.513-6.053-6.878l-4.065,3.323C262.907,100.725,265.003,103.124,267.198,105.433z"/>
<path fill-rule="evenodd" clip-rule="evenodd" fill="#FFFFFF" d="M279.87,116.984l3.231-4.138c-2.395-1.869-4.708-3.848-6.938-5.92
	l-3.573,3.846C274.925,112.943,277.352,115.02,279.87,116.984z"/>
<path fill-rule="evenodd" clip-rule="evenodd" fill="#FFFFFF" d="M294.186,126.375l2.496-4.619c-2.663-1.44-5.257-3.011-7.775-4.701
	l-2.926,4.359C288.634,123.195,291.372,124.853,294.186,126.375z"/>
<path fill="none" d="M281.794,79.141l-0.746-0.982l-0.367-0.49l-0.18-0.245l-0.088-0.123c-0.008-0.013,0.005,0.002,0.007,0.002
	c0.032,0.021,0.047,0.087,0.051,0.063c0.002-0.001,0,0-0.005,0.003c0.015,0.037-0.058-0.098-0.096-0.164l-0.142-0.25
	c-0.757-1.332-1.513-2.763-2.27-4.287c-1.515-3.048-3.027-6.474-4.611-10.187c-3.19-7.419-6.591-16.066-11.659-25.37l-46.029,25.235
	c3.054,5.543,5.964,12.623,9.41,20.744c1.736,4.06,3.621,8.38,5.865,12.905c1.123,2.262,2.336,4.573,3.668,6.915l1.348,2.332
	c0.502,0.911,1.185,1.802,1.827,2.686l1.254,1.695l1.171,1.542L281.794,79.141z"/>
<path fill-rule="evenodd" clip-rule="evenodd" fill="#FFFFFF" d="M242.716,62.318l4.805-2.117c-1.283-2.906-2.618-5.813-4.076-8.688
	l-4.684,2.372C240.16,56.644,241.458,59.467,242.716,62.318z"/>
<path fill-rule="evenodd" clip-rule="evenodd" fill="#FFFFFF" d="M249.374,77.838l4.802-2.122c-1.254-2.833-2.464-5.711-3.688-8.604
	l-4.835,2.046C246.875,72.046,248.095,74.948,249.374,77.838z"/>
<path fill-rule="evenodd" clip-rule="evenodd" fill="#FFFFFF" d="M257.166,93.113l4.35-2.946c-0.21-0.263-0.367-0.571-0.544-0.862
	l-0.539-0.928l-1.105-1.986c-0.72-1.338-1.415-2.696-2.091-4.07l-4.712,2.314c0.702,1.427,1.427,2.845,2.184,4.25
	C255.48,90.277,256.223,91.68,257.166,93.113z"/>
<path fill="none" d="M325.271,131.63c-13.516-7.585-26.678-15.341-39.221-23.575l-28.808,43.882
	c13.987,9.179,28.188,17.527,42.34,25.471L325.271,131.63z"/>
<polygon fill-rule="evenodd" clip-rule="evenodd" fill="#FFFFFF" points="319.332,163.138 321.86,158.537 314.147,154.271 
	311.592,158.856 "/>
<polygon fill-rule="evenodd" clip-rule="evenodd" fill="#FFFFFF" points="333.257,169.724 335.756,165.106 328,160.896 
	325.488,165.506 "/>
<path fill-rule="evenodd" clip-rule="evenodd" fill="#FFFFFF" d="M281.07,138.224l2.777-4.456c-2.484-1.548-4.956-3.115-7.412-4.703
	l-2.85,4.409C276.067,135.079,278.563,136.661,281.07,138.224z"/>
<polygon fill-rule="evenodd" clip-rule="evenodd" fill="#FFFFFF" points="294.661,146.456 297.328,141.934 289.785,137.42 
	287.06,141.908 "/>
<polygon fill-rule="evenodd" clip-rule="evenodd" fill="#FFFFFF" points="306.37,154.365 308.955,149.795 301.313,145.427 
	298.685,149.972 "/>
<path fill="none" d="M286.05,108.056c-12.538-8.233-24.461-16.943-35.4-26.374l-34.265,39.767
	c13.102,11.29,26.878,21.307,40.857,30.488L286.05,108.056z"/>
<path fill-rule="evenodd" clip-rule="evenodd" fill="#FFFFFF" d="M241.881,110.888l3.265-4.111c-2.282-1.813-4.54-3.653-6.766-5.53
	l-3.38,4.017C237.266,107.175,239.563,109.046,241.881,110.888z"/>
<path fill-rule="evenodd" clip-rule="evenodd" fill="#FFFFFF" d="M254.579,120.503l3.077-4.253c-2.365-1.711-4.709-3.448-7.03-5.214
	l-3.179,4.178C249.803,117.006,252.181,118.769,254.579,120.503z"/>
<path fill-rule="evenodd" clip-rule="evenodd" fill="#FFFFFF" d="M267.608,129.55l2.915-4.367c-2.432-1.623-4.846-3.268-7.242-4.938
	l-3.002,4.307C262.705,126.243,265.149,127.908,267.608,129.55z"/>
<path fill="none" d="M250.65,81.682l-2.039-1.776l-1.21-1.071l-0.587-0.516l-0.472-0.382l-0.558-0.45
	c-0.575-0.479-1.183-1.047-1.853-1.771c-1.34-1.434-2.918-3.498-4.797-6.274c-1.889-2.768-4.054-6.229-6.86-10.235
	c-2.807-3.985-6.323-8.582-11.042-13.064l-36.111,38.099c1.044,0.982,2.46,2.652,4.208,5.153c1.755,2.485,3.81,5.745,6.378,9.539
	c2.574,3.783,5.703,8.135,9.769,12.516c2.026,2.184,4.292,4.362,6.768,6.418c0.577,0.425,2.567,2.247,4.139,3.582L250.65,81.682z"/>
<path fill-rule="evenodd" clip-rule="evenodd" fill="#FFFFFF" d="M209.54,75.732l4.307-3.002c-1.732-2.482-3.588-4.956-5.697-7.292
	l-3.897,3.517C206.153,71.06,207.882,73.354,209.54,75.732z"/>
<path fill-rule="evenodd" clip-rule="evenodd" fill="#FFFFFF" d="M218.459,88.883l4.229-3.111c-1.679-2.283-3.274-4.688-4.889-7.144
	l-4.385,2.886C215.034,83.978,216.679,86.461,218.459,88.883z"/>
<path fill-rule="evenodd" clip-rule="evenodd" fill="#FFFFFF" d="M229.572,100.584l3.477-3.934l-0.872-0.771
	c-0.299-0.262-0.654-0.524-0.897-0.734c-0.523-0.43-1.034-0.876-1.536-1.335c-1.004-0.917-1.966-1.893-2.896-2.911l-3.882,3.534
	c1.027,1.125,2.101,2.216,3.234,3.25c0.565,0.518,1.144,1.023,1.738,1.512C228.543,99.676,228.995,100.065,229.572,100.584z"/>
<circle fill="#FFFFFF" cx="172.833" cy="82.277" r="2.779"/>
<circle fill="#FFFFFF" cx="139.025" cy="72.979" r="2.779"/>
<circle fill="#FFFFFF" cx="120.525" cy="32.19" r="2.779"/>
<rect x="120.477" y="32.322" transform="matrix(0.9984 0.0574 -0.0574 0.9984 2.1881 -8.5508)" fill="#FFFFFF" width="58.989" height="3"/>
<rect x="69.606" y="12.246" transform="matrix(0.7199 0.6941 -0.6941 0.7199 77.8416 -25.98)" fill="#FFFFFF" width="2.999" height="142.396"/>
<rect x="159.104" y="36.596" transform="matrix(0.4593 0.8883 -0.8883 0.4593 140.9289 -109.7392)" fill="#FFFFFF" width="3" height="48.586"/>
<rect x="128.276" y="70.948" transform="matrix(0.9721 0.2344 -0.2344 0.9721 29.4921 -27.3446)" fill="#FFFFFF" width="3" height="78.886"/>
<rect x="178.881" y="59.269" transform="matrix(0.7991 0.6012 -0.6012 0.7991 79.4714 -93.9978)" fill="#FFFFFF" width="3" height="25.286"/>
<rect x="133.877" y="129.568" transform="matrix(0.2277 0.9737 -0.9737 0.2277 269.9208 -78.1904)" fill="#FFFFFF" width="100.753" height="3"/>
<rect x="122.178" y="15.264" transform="matrix(0.3945 0.9189 -0.9189 0.3945 117.3309 -85.6782)" fill="#FFFFFF" width="3" height="61.855"/>
<rect x="146.123" y="54.645" transform="matrix(0.7924 0.6101 -0.6101 0.7924 79.1021 -73.5678)" fill="#FFFFFF" width="3" height="49.545"/>
<rect x="179.304" y="69.458" transform="matrix(0.9977 0.0677 -0.0677 0.9977 6.505 -12.0353)" fill="#FFFFFF" width="3" height="40.979"/>
<path fill-rule="evenodd" clip-rule="evenodd" fill="#FFFFFF" d="M324.626,137.253l0.644-5.21c-2.993-0.37-5.968-0.902-8.907-1.59
	l-1.196,5.112C318.287,136.295,321.445,136.86,324.626,137.253z"/>
<path d="M343.663,315.947h-63.437l8.255-17.472h27.881l-16.744-35.764c-0.364-0.667-0.88-1.001-1.547-1.001
	c-0.85,0-1.396,0.334-1.638,1.001l-24.844,53.235h-19.2l33.579-72.072c2.426-5.277,6.461-7.917,12.103-7.917
	c5.581,0,9.585,2.64,12.012,7.917L343.663,315.947z"/>
<path d="M399.265,254.704H320.55v-17.472h78.715V254.704z M368.689,315.947h-17.472V263.44h17.472V315.947z"/>
<path d="M476.523,315.947H459.05l-13.193-28.847c-0.123-0.303-0.244-0.638-0.365-1.001c-0.303-0.546-0.758-0.819-1.365-0.819
	h-16.652c-0.363-0.06-0.668,0.077-0.91,0.409c-0.242,0.334-0.516,0.805-0.818,1.411l-13.104,28.847h-17.473l13.922-30.667
	c1.82-3.882,3.064-6.43,3.732-7.644c1.576-2.79,3.275-4.854,5.096-6.188c-0.607-0.303-1.123-0.819-1.547-1.547
	c-0.182-0.242-0.547-0.94-1.092-2.093l-15.744-30.576h18.656l14.559,28.847c0.242,0.426,0.486,0.819,0.729,1.184
	c0.242,0.363,0.576,0.546,1.002,0.546h2.82c0.424,0,0.758-0.137,1.002-0.41c0.24-0.272,0.484-0.712,0.727-1.319l14.924-28.847
	h18.201l-15.744,30.576c-0.303,0.668-0.668,1.319-1.092,1.956s-0.941,1.199-1.547,1.684c2.123,1.638,4.125,4.309,6.006,8.008
	c0.729,1.456,1.639,3.398,2.73,5.824L476.523,315.947z"/>
<path d="M158.042,357.372h-18.48v16.176h-9.216v-41.52h9.216v16.128h18.48V357.372z M171.866,373.548h-9.216v-41.52h9.216V373.548z"
	/>
<path d="M222.842,373.548h-33.461l4.354-9.216h14.707l-8.832-18.864c-0.192-0.352-0.464-0.528-0.816-0.528
	c-0.448,0-0.736,0.177-0.864,0.528l-13.105,28.08h-10.127l17.712-38.016c1.279-2.784,3.408-4.177,6.384-4.177
	c2.944,0,5.056,1.393,6.336,4.177L222.842,373.548z"/>
<path d="M258.602,373.548H233.21c-4.224,0-7.296-2.16-9.216-6.48c-1.536-3.455-2.304-8.224-2.304-14.304
	c0-3.968,0.271-7.296,0.816-9.983c0.672-3.36,1.792-5.92,3.36-7.681c1.824-2.047,4.272-3.071,7.344-3.071h25.392v9.216H234.17
	c-1.088,0-1.872,1-2.352,3s-0.72,4.84-0.72,8.52c0,3.713,0.24,6.568,0.72,8.568s1.264,3,2.352,3h24.432V373.548z"/>
<path d="M303.913,373.548h-10.8l-6.912-15.216c-0.128-0.224-0.248-0.439-0.36-0.648c-0.112-0.207-0.296-0.312-0.552-0.312h-15.696
	v16.176h-9.216v-41.52h9.216v16.128h12.48c0.16,0,0.288-0.04,0.384-0.12c0.096-0.08,0.271-0.344,0.528-0.792l7.824-15.216h10.8
	l-8.496,16.128c-0.192,0.384-0.384,0.743-0.576,1.08c-0.192,0.336-0.448,0.616-0.768,0.84c0.992,0.736,1.92,1.76,2.784,3.071
	c0.768,1.185,1.52,2.593,2.256,4.225L303.913,373.548z"/>
<path d="M347.257,373.548h-32.305c-2.561,0-4.736-0.896-6.527-2.688c-1.793-1.791-2.688-3.967-2.688-6.527v-23.088
	c0-2.56,0.896-4.735,2.688-6.528c1.791-1.792,3.967-2.688,6.527-2.688h32.305v9.216h-31.393c-0.257,0-0.473,0.088-0.647,0.264
	c-0.177,0.177-0.265,0.393-0.265,0.648v6h32.305v9.216h-32.305v6c0,0.288,0.088,0.521,0.265,0.695
	c0.175,0.177,0.391,0.265,0.647,0.265h31.393V373.548z"/>
<path d="M392.136,373.548h-9.217l-2.303-15.216c-0.129-0.64-0.449-0.96-0.961-0.96H358.44v16.176h-9.215v-25.392h30.431
	c0.289,0,0.52-0.088,0.697-0.265c0.174-0.175,0.264-0.392,0.264-0.647v-5.088c0-0.607-0.32-0.912-0.961-0.912h-30.431v-9.216h31.392
	c2.496,0,4.656,0.896,6.48,2.688c1.822,1.793,2.734,3.969,2.734,6.528v6.912c0,0.896-0.152,1.775-0.455,2.64
	c-0.305,0.864-0.729,1.521-1.271,1.968c0.512,0.416,0.912,1.089,1.199,2.017c0.191,0.575,0.367,1.439,0.527,2.592L392.136,373.548z"
	/>
<path d="M437.015,364.332c0,2.496-0.896,4.656-2.688,6.479c-1.793,1.824-3.969,2.736-6.527,2.736h-32.305v-9.216h31.393
	c0.607,0,0.912-0.319,0.912-0.96v-5.04c0-0.288-0.09-0.52-0.264-0.696c-0.178-0.176-0.393-0.264-0.648-0.264h-22.176
	c-2.561,0-4.736-0.896-6.529-2.688c-1.791-1.791-2.688-3.967-2.688-6.527v-6.912c0-2.56,0.896-4.735,2.688-6.528
	c1.793-1.792,3.969-2.688,6.529-2.688h32.303v9.216h-31.391c-0.258,0-0.473,0.088-0.648,0.264c-0.176,0.177-0.264,0.393-0.264,0.648
	v5.088c0,0.256,0.088,0.473,0.264,0.647c0.176,0.177,0.391,0.265,0.648,0.265H427.8c2.559,0,4.734,0.896,6.527,2.688
	c1.791,1.793,2.688,3.969,2.688,6.528V364.332z"/>
<path d="M480.07,348.156c0,2.561-0.896,4.736-2.688,6.527c-1.793,1.793-3.969,2.688-6.527,2.688h-22.176v16.176h-9.217v-25.392
	h30.432c0.289,0,0.52-0.088,0.697-0.265c0.174-0.175,0.264-0.392,0.264-0.647v-5.088c0-0.607-0.32-0.912-0.961-0.912h-30.432v-9.216
	h31.393c2.496,0,4.656,0.896,6.48,2.688c1.822,1.793,2.734,3.969,2.734,6.528V348.156z"/>
<path d="M519.958,373.548h-33.461l4.355-9.216h14.705l-8.832-18.864c-0.191-0.352-0.463-0.528-0.814-0.528
	c-0.449,0-0.738,0.177-0.865,0.528l-13.104,28.08h-10.129l17.713-38.016c1.279-2.784,3.408-4.177,6.385-4.177
	c2.943,0,5.055,1.393,6.336,4.177L519.958,373.548z"/>
<path d="M555.718,373.548h-25.393c-4.223,0-7.295-2.16-9.215-6.48c-1.537-3.455-2.305-8.224-2.305-14.304
	c0-3.968,0.271-7.296,0.816-9.983c0.672-3.36,1.791-5.92,3.359-7.681c1.824-2.047,4.273-3.071,7.344-3.071h25.393v9.216h-24.432
	c-1.088,0-1.871,1-2.352,3s-0.721,4.84-0.721,8.52c0,3.713,0.24,6.568,0.721,8.568s1.264,3,2.352,3h24.432V373.548z"/>
<path d="M598.679,373.548h-32.305c-2.561,0-4.736-0.896-6.527-2.688c-1.793-1.791-2.689-3.967-2.689-6.527v-23.088
	c0-2.56,0.896-4.735,2.689-6.528c1.791-1.792,3.967-2.688,6.527-2.688h32.305v9.216h-31.393c-0.258,0-0.473,0.088-0.648,0.264
	c-0.176,0.177-0.264,0.393-0.264,0.648v6h32.305v9.216h-32.305v6c0,0.288,0.088,0.521,0.264,0.695
	c0.176,0.177,0.391,0.265,0.648,0.265h31.393V373.548z"/>
</svg>
