<?xml version="1.0" encoding="UTF-8" standalone="no"?>
<!-- Generator: Adobe Illustrator 15.0.0, SVG Export Plug-In  -->

<svg
   xmlns:dc="http://purl.org/dc/elements/1.1/"
   xmlns:cc="http://creativecommons.org/ns#"
   xmlns:rdf="http://www.w3.org/1999/02/22-rdf-syntax-ns#"
   xmlns:svg="http://www.w3.org/2000/svg"
   xmlns="http://www.w3.org/2000/svg"
   xmlns:sodipodi="http://sodipodi.sourceforge.net/DTD/sodipodi-0.dtd"
   xmlns:inkscape="http://www.inkscape.org/namespaces/inkscape"
   version="1.1"
   x="0px"
   y="0px"
   width="183.37726"
   height="53.971111"
   viewBox="-40.508 -41.067 183.37726 53.971111"
   enable-background="new -40.508 -41.067 800 476"
   xml:space="preserve"
   id="svg3267"
   inkscape:version="0.48.2 r9819"
   sodipodi:docname="bat-cutout.svg"><metadata
   id="metadata3509"><rdf:RDF><cc:Work
       rdf:about=""><dc:format>image/svg+xml</dc:format><dc:type
         rdf:resource="http://purl.org/dc/dcmitype/StillImage" /><dc:title /></cc:Work></rdf:RDF></metadata><sodipodi:namedview
   pagecolor="#ffffff"
   bordercolor="#666666"
   borderopacity="1"
   objecttolerance="10"
   gridtolerance="10"
   guidetolerance="10"
   inkscape:pageopacity="0"
   inkscape:pageshadow="2"
   inkscape:window-width="1680"
   inkscape:window-height="1002"
   id="namedview3507"
   showgrid="false"
   inkscape:zoom="8.4470671"
   inkscape:cx="91.688629"
   inkscape:cy="21.565437"
   inkscape:window-x="0"
   inkscape:window-y="382"
   inkscape:window-maximized="0"
   inkscape:current-layer="svg3267"
   inkscape:document-units="in"
   inkscape:snap-bbox="false"
   inkscape:object-nodes="true"
   units="in"
   fit-margin-top="0"
   fit-margin-left="0"
   fit-margin-right="0"
   fit-margin-bottom="0" />
<defs
   id="defs3269">
</defs>
<path
   style="fill:none;stroke:#000000;stroke-width:0.25225383;stroke-opacity:1"
   d="m 10.743127,-40.940764 c -0.9210091,-0.0016 -1.8252301,0.014 -2.7187501,0.0625 -25.0185669,1.357871 -39.7504189,22.568609 -48.4062499,39.2812499 6.831785,-6.640692 26.885626,-5.665668 29.5,4.0625 6.4677619,-9.316129 17.5524479,1.94399 20.4374999,8.3125001 3.1496501,-7.2917581 16.1919321,-3.3526151 18.4062501,2 1.66008,-5.5702441 3.922682,-11.5972181 11.875,-10.3125001 5.38131,0.869296 7.326748,9.9728111 13.09375,8.3125001 1.82376,-0.52494 3.872199,-4.7848721 6.3125,-6.5625001 5.96053,-4.34203697 15.18972,-0.35829 13.625,8.3125001 3.47581,-2.6262961 11.84191,-7.9117201 18.40625,-4.5312501 1.11397,0.573374 2.47908,2.6767401 3.28125,2.2812501 0.41346,-9.2652601 13.714213,-15.0934811 20.187503,-7.8125001 0.9795,-11.517822 21.73503,-9.453695 28,-4.0625 -11.46471,-19.4972949 -26.7158,-43.6544389 -59.781253,-38.5937499 -0.002,0.01026 0.002,0.02099 0,0.03125 l -63.5625,0 c -0.0012,-0.01065 0.0012,-0.02059 0,-0.03125 -3.004151,-0.51618 -5.893223,-0.745226 -8.65625,-0.75 z"
   id="path3271"
   inkscape:connector-curvature="0" />





















































































































</svg>