<?xml version="1.0" encoding="UTF-8" standalone="no"?>
<!-- Generator: Adobe Illustrator 15.0.0, SVG Export Plug-In  -->

<svg
   xmlns:dc="http://purl.org/dc/elements/1.1/"
   xmlns:cc="http://creativecommons.org/ns#"
   xmlns:rdf="http://www.w3.org/1999/02/22-rdf-syntax-ns#"
   xmlns:svg="http://www.w3.org/2000/svg"
   xmlns="http://www.w3.org/2000/svg"
   xmlns:sodipodi="http://sodipodi.sourceforge.net/DTD/sodipodi-0.dtd"
   xmlns:inkscape="http://www.inkscape.org/namespaces/inkscape"
   version="1.1"
   x="0px"
   y="0px"
   width="800px"
   height="476px"
   viewBox="-40.508 -41.067 800 476"
   enable-background="new -40.508 -41.067 800 476"
   xml:space="preserve"
   id="svg3267"
   inkscape:version="0.48.2 r9819"
   sodipodi:docname="hackerspace.svg"><metadata
   id="metadata3509"><rdf:RDF><cc:Work
       rdf:about=""><dc:format>image/svg+xml</dc:format><dc:type
         rdf:resource="http://purl.org/dc/dcmitype/StillImage" /><dc:title /></cc:Work></rdf:RDF></metadata><sodipodi:namedview
   pagecolor="#ffffff"
   bordercolor="#666666"
   borderopacity="1"
   objecttolerance="10"
   gridtolerance="10"
   guidetolerance="10"
   inkscape:pageopacity="0"
   inkscape:pageshadow="2"
   inkscape:window-width="1293"
   inkscape:window-height="806"
   id="namedview3507"
   showgrid="false"
   inkscape:zoom="1.0270726"
   inkscape:cx="400"
   inkscape:cy="237.11223"
   inkscape:window-x="329"
   inkscape:window-y="563"
   inkscape:window-maximized="0"
   inkscape:current-layer="svg3267" />
<defs
   id="defs3269">
</defs>








































































































<path
   d="M343.663,315.947h-63.437l8.255-17.472h27.881l-16.744-35.764c-0.364-0.667-0.88-1.001-1.547-1.001  c-0.85,0-1.396,0.334-1.638,1.001l-24.844,53.235h-19.2l33.579-72.072c2.426-5.277,6.461-7.917,12.103-7.917  c5.581,0,9.585,2.64,12.012,7.917L343.663,315.947z"
   id="path3479" />
<path
   d="M399.265,254.704H320.55v-17.472h78.715V254.704z M368.689,315.947h-17.472V263.44h17.472V315.947z"
   id="path3481" />
<path
   d="M476.523,315.947H459.05l-13.193-28.847c-0.123-0.303-0.244-0.638-0.365-1.001c-0.303-0.546-0.758-0.819-1.365-0.819  h-16.652c-0.363-0.06-0.668,0.077-0.91,0.409c-0.242,0.334-0.516,0.805-0.818,1.411l-13.104,28.847h-17.473l13.922-30.667  c1.82-3.882,3.064-6.43,3.732-7.644c1.576-2.79,3.275-4.854,5.096-6.188c-0.607-0.303-1.123-0.819-1.547-1.547  c-0.182-0.242-0.547-0.94-1.092-2.093l-15.744-30.576h18.656l14.559,28.847c0.242,0.426,0.486,0.819,0.729,1.184  c0.242,0.363,0.576,0.546,1.002,0.546h2.82c0.424,0,0.758-0.137,1.002-0.41c0.24-0.272,0.484-0.712,0.727-1.319l14.924-28.847  h18.201l-15.744,30.576c-0.303,0.668-0.668,1.319-1.092,1.956s-0.941,1.199-1.547,1.684c2.123,1.638,4.125,4.309,6.006,8.008  c0.729,1.456,1.639,3.398,2.73,5.824L476.523,315.947z"
   id="path3483" />
<path
   d="M158.042,357.372h-18.48v16.176h-9.216v-41.52h9.216v16.128h18.48V357.372z M171.866,373.548h-9.216v-41.52h9.216V373.548z"
   id="path3485" />
<path
   d="M222.842,373.548h-33.461l4.354-9.216h14.707l-8.832-18.864c-0.192-0.352-0.464-0.528-0.816-0.528  c-0.448,0-0.736,0.177-0.864,0.528l-13.105,28.08h-10.127l17.712-38.016c1.279-2.784,3.408-4.177,6.384-4.177  c2.944,0,5.056,1.393,6.336,4.177L222.842,373.548z"
   id="path3487" />
<path
   d="M258.602,373.548H233.21c-4.224,0-7.296-2.16-9.216-6.48c-1.536-3.455-2.304-8.224-2.304-14.304  c0-3.968,0.271-7.296,0.816-9.983c0.672-3.36,1.792-5.92,3.36-7.681c1.824-2.047,4.272-3.071,7.344-3.071h25.392v9.216H234.17  c-1.088,0-1.872,1-2.352,3s-0.72,4.84-0.72,8.52c0,3.713,0.24,6.568,0.72,8.568s1.264,3,2.352,3h24.432V373.548z"
   id="path3489" />
<path
   d="M303.913,373.548h-10.8l-6.912-15.216c-0.128-0.224-0.248-0.439-0.36-0.648c-0.112-0.207-0.296-0.312-0.552-0.312h-15.696  v16.176h-9.216v-41.52h9.216v16.128h12.48c0.16,0,0.288-0.04,0.384-0.12c0.096-0.08,0.271-0.344,0.528-0.792l7.824-15.216h10.8  l-8.496,16.128c-0.192,0.384-0.384,0.743-0.576,1.08c-0.192,0.336-0.448,0.616-0.768,0.84c0.992,0.736,1.92,1.76,2.784,3.071  c0.768,1.185,1.52,2.593,2.256,4.225L303.913,373.548z"
   id="path3491" />
<path
   d="M347.257,373.548h-32.305c-2.561,0-4.736-0.896-6.527-2.688c-1.793-1.791-2.688-3.967-2.688-6.527v-23.088  c0-2.56,0.896-4.735,2.688-6.528c1.791-1.792,3.967-2.688,6.527-2.688h32.305v9.216h-31.393c-0.257,0-0.473,0.088-0.647,0.264  c-0.177,0.177-0.265,0.393-0.265,0.648v6h32.305v9.216h-32.305v6c0,0.288,0.088,0.521,0.265,0.695  c0.175,0.177,0.391,0.265,0.647,0.265h31.393V373.548z"
   id="path3493" />
<path
   d="M392.136,373.548h-9.217l-2.303-15.216c-0.129-0.64-0.449-0.96-0.961-0.96H358.44v16.176h-9.215v-25.392h30.431  c0.289,0,0.52-0.088,0.697-0.265c0.174-0.175,0.264-0.392,0.264-0.647v-5.088c0-0.607-0.32-0.912-0.961-0.912h-30.431v-9.216h31.392  c2.496,0,4.656,0.896,6.48,2.688c1.822,1.793,2.734,3.969,2.734,6.528v6.912c0,0.896-0.152,1.775-0.455,2.64  c-0.305,0.864-0.729,1.521-1.271,1.968c0.512,0.416,0.912,1.089,1.199,2.017c0.191,0.575,0.367,1.439,0.527,2.592L392.136,373.548z"
   id="path3495" />
<path
   d="M437.015,364.332c0,2.496-0.896,4.656-2.688,6.479c-1.793,1.824-3.969,2.736-6.527,2.736h-32.305v-9.216h31.393  c0.607,0,0.912-0.319,0.912-0.96v-5.04c0-0.288-0.09-0.52-0.264-0.696c-0.178-0.176-0.393-0.264-0.648-0.264h-22.176  c-2.561,0-4.736-0.896-6.529-2.688c-1.791-1.791-2.688-3.967-2.688-6.527v-6.912c0-2.56,0.896-4.735,2.688-6.528  c1.793-1.792,3.969-2.688,6.529-2.688h32.303v9.216h-31.391c-0.258,0-0.473,0.088-0.648,0.264c-0.176,0.177-0.264,0.393-0.264,0.648  v5.088c0,0.256,0.088,0.473,0.264,0.647c0.176,0.177,0.391,0.265,0.648,0.265H427.8c2.559,0,4.734,0.896,6.527,2.688  c1.791,1.793,2.688,3.969,2.688,6.528V364.332z"
   id="path3497" />
<path
   d="M480.07,348.156c0,2.561-0.896,4.736-2.688,6.527c-1.793,1.793-3.969,2.688-6.527,2.688h-22.176v16.176h-9.217v-25.392  h30.432c0.289,0,0.52-0.088,0.697-0.265c0.174-0.175,0.264-0.392,0.264-0.647v-5.088c0-0.607-0.32-0.912-0.961-0.912h-30.432v-9.216  h31.393c2.496,0,4.656,0.896,6.48,2.688c1.822,1.793,2.734,3.969,2.734,6.528V348.156z"
   id="path3499" />
<path
   d="M519.958,373.548h-33.461l4.355-9.216h14.705l-8.832-18.864c-0.191-0.352-0.463-0.528-0.814-0.528  c-0.449,0-0.738,0.177-0.865,0.528l-13.104,28.08h-10.129l17.713-38.016c1.279-2.784,3.408-4.177,6.385-4.177  c2.943,0,5.055,1.393,6.336,4.177L519.958,373.548z"
   id="path3501" />
<path
   d="M555.718,373.548h-25.393c-4.223,0-7.295-2.16-9.215-6.48c-1.537-3.455-2.305-8.224-2.305-14.304  c0-3.968,0.271-7.296,0.816-9.983c0.672-3.36,1.791-5.92,3.359-7.681c1.824-2.047,4.273-3.071,7.344-3.071h25.393v9.216h-24.432  c-1.088,0-1.871,1-2.352,3s-0.721,4.84-0.721,8.52c0,3.713,0.24,6.568,0.721,8.568s1.264,3,2.352,3h24.432V373.548z"
   id="path3503" />
<path
   d="M598.679,373.548h-32.305c-2.561,0-4.736-0.896-6.527-2.688c-1.793-1.791-2.689-3.967-2.689-6.527v-23.088  c0-2.56,0.896-4.735,2.689-6.528c1.791-1.792,3.967-2.688,6.527-2.688h32.305v9.216h-31.393c-0.258,0-0.473,0.088-0.648,0.264  c-0.176,0.177-0.264,0.393-0.264,0.648v6h32.305v9.216h-32.305v6c0,0.288,0.088,0.521,0.264,0.695  c0.176,0.177,0.391,0.265,0.648,0.265h31.393V373.548z"
   id="path3505" />
</svg>